<svg xmlns="http://www.w3.org/2000/svg" xmlns:xlink="http://www.w3.org/1999/xlink" width="1307" height="581" viewBox="0 0 1307 581"><defs><clipPath id="a"><rect width="1307" height="581" transform="translate(29 138)" fill="#fff"/></clipPath></defs><g transform="translate(-29 -138)" clip-path="url(#a)"><g transform="translate(-468.03 -375.76)" opacity="0.093"><path d="M444.9,542.714l0-.284-.264-.013.011-.511,4.923.2,10.525-1.439L443.4,541l-.007-.514,12.36-.247-13.484-.52.007-.348-.3.007,0-.513,27.471-.538-18.5-.686-9.423,1.19-.038-.509,4.654-.589-5.5.1,0-.513,1.148-.02-1.673-.064.011-.513,10.816.4,8.989-1.137-20.567.383,0-.511,15.88-.3-16.625-.591-.417.051,0-.044-.048,0v-.024l-.031,0,.011-.511.476.018,8.35-.981-9.967.176,0-.513L783.025,527l.007.511-9.48.172,9,.229-.009.513-.152,0,0,.3-13.143.238,12.57.333-.009.511h-.093l0,.183-16.99.32,16.314.443-.009.516H781l0,.062-21.03.4,18.623.52,2.01-.794.112.492-.7.278.229-.007,0,.514h-.046v.077l-1.556-.044-2.55,1.007,3.358-.066.007.511-.128,0,0,.229-4.608-.135-2.779,1.1,6.675-.139.007.513-.214,0-.007.4-7.836-.233-3.032,1.2,10.2-.216.007.514-127.529,2.724-.006-.514,30.278-.648-22.1-.732-208.818,4.335,0-.256,0,.256Zm19.617-2.138-10.5,1.437,31.065-.646Zm8.746-.178,20.476.789,9.335-1.39Zm33.822-.681-9.317,1.384,30-.621Zm8.978-.183,20.6.76,8.215-1.342Zm32.418-.652-8.2,1.34,28.983-.6Zm-103.344.434,19.366.745,9.615-1.315Zm33.388-.655-9.6,1.311,29.163-.589Zm79.158.033,20.686.736,7.164-1.3Zm31.065-.628-7.151,1.3,28.007-.58Zm-101.16.415,19.48.718,8.533-1.267Zm32.006-.628-8.515,1.269,28.178-.571Zm148.345.229,21.977.729,4.775-1.285Zm28.866-.595-4.771,1.28,26.887-.577Zm-98.63.39,20.754.712,6.172-1.254Zm29.763-.6-6.164,1.252,27.072-.56Zm-99.049.392,19.571.7,7.514-1.225Zm30.68-.6-7.5,1.228,27.237-.551Zm-99.483.4,18.423.679,8.791-1.2Zm31.6-.6-8.771,1.2,27.37-.54Zm214.854.419,22,.7,3.877-1.239Zm27.643-.573-3.874,1.241,26-.557Zm-96.607.372,20.8.688,5.247-1.214Zm28.518-.573-5.24,1.208,26.186-.54Zm-97.006.37,19.639.674,6.558-1.188Zm29.4-.573-6.545,1.183,26.334-.529Zm-97.42.377,18.511.657,7.8-1.161Zm30.292-.577-7.786,1.157,26.455-.52Zm212.747.4,22.012.674,3.032-1.2Zm-279.4-.6-8.969,1.133,26.552-.511Zm211.231.4,20.836.663,4.374-1.172Zm27.317-.551-4.37,1.17,25.331-.522Zm-95.027.357,19.69.65,5.655-1.151Zm28.172-.553-5.646,1.144,25.47-.513Zm-95.421.357,18.575.637,6.873-1.126ZM570,535.363l-6.86,1.124,25.582-.5Zm-95.836.364,17.5.619,8.037-1.1Zm29.9-.558-8.017,1.1,25.675-.491Zm209.219.386,20.845.643,3.554-1.137Zm26.16-.527-3.55,1.133,24.507-.507Zm-93.11.335,19.721.628,4.8-1.111Zm26.986-.526-4.8,1.108,24.642-.5Zm-93.493.337,18.63.617,6-1.089Zm27.826-.529-5.99,1.084,24.752-.487Zm-93.89.344,17.57.6,7.138-1.062Zm28.672-.535-7.124,1.058,24.838-.474Zm207.245.366,20.838.624,2.781-1.1ZM448.143,534.8l16.543.588,8.22-1.038Zm29.525-.535-8.2,1.036,24.893-.465Zm205.813.368,19.734.608,4.009-1.075Zm25.847-.507-4,1.076,23.848-.483Zm-91.62.322,18.661.595,5.179-1.049Zm26.658-.507-5.17,1.049,23.952-.472Zm-92,.324,17.621.586,6.291-1.031Zm27.482-.511-6.281,1.027,24.029-.461Zm-92.393.331,16.607.571,7.347-1Zm28.306-.513-7.332,1,24.073-.448Zm203.919.35,19.73.589,3.257-1.04Zm24.745-.485-3.253,1.042,23.084-.467ZM452.1,533.388l-8.328.978,24.1-.438Zm202.52.355,18.676.575,4.4-1.018Zm25.534-.487-4.4,1.016,23.183-.454Zm-90.166.309,17.649.562,5.492-.992Zm26.327-.489-5.483.994,23.249-.445Zm-90.542.313,16.651.549,6.527-.967Zm27.129-.494-6.514.97,23.289-.434Zm202.068.333,19.707.571,2.55-1.007Zm-293-.013,15.684.535,7.51-.947Zm27.938-.5-7.49.946,23.306-.425Zm200.709.335,18.672.557,3.674-.983Zm24.443-.465-3.667.983,22.44-.438Zm-88.385.293,17.665.544,4.74-.963Zm25.216-.47-4.733.963,22.5-.432Zm-88.746.3,16.677.533,5.756-.943Zm25.992-.472-5.743.937,22.537-.421Zm-89.125.3,15.73.52,6.717-.919Zm26.781-.474-6.7.917,22.555-.414Zm198.926.317,18.661.545,2.986-.959Zm23.4-.445-2.984.954,21.735-.427Zm-86.66.275,17.665.527,4.031-.928Zm24.143-.447-4.026.93,21.785-.416Zm-87.008.282,16.7.516,5.027-.91Zm24.9-.454-5.016.91,21.816-.41Zm-87.373.289,15.763.5,5.97-.888Zm25.668-.458-5.957.888,21.83-.4Zm134.587.139,17.647.513,3.365-.9Zm23.108-.43-3.361.9,21.1-.405Zm-85.317.267,16.7.5,4.341-.882Zm23.844-.432-4.335.879,21.126-.394Zm-85.668.271,15.774.485,5.264-.859Zm24.586-.436-5.254.855,21.127-.381Zm133.53.126,17.616.494,2.735-.875Zm22.105-.41-2.733.873,20.435-.39Zm-83.676.249,16.684.487,3.693-.857Zm22.821-.412-3.687.851,20.457-.384Zm-84.009.256,15.774.472,4.6-.833Zm23.54-.419-4.59.831,20.455-.372Zm71.549-.04,16.66.469,3.081-.828Zm21.832-.4-3.076.826,19.815-.37Zm-82.4.24,15.761.454,3.971-.8Zm22.531-.4-3.965.807,19.807-.361Zm71.146-.048,16.62.454,2.505-.8Zm20.876-.379-2.5.8,19.19-.357Zm-80.829.227,15.732.443,3.378-.78Zm21.547-.381-3.372.78,19.181-.348Zm11.393-.2,15.7.43,2.821-.758Zm20.606-.366-2.816.758,18.586-.337Zm11.587-.2,15.653.414,2.292-.734Zm19.692-.348-2.292.729,18.009-.326Z" transform="translate(525.963 410.81)" fill="none" stroke="#8ecdf4" stroke-miterlimit="10" stroke-width="0.5"/><path d="M458.805,558.237l-.009-.513,32.872-.914-32.5-1.66-2.622.474-.044-.4-.328.007,0-.231-.222-.009.015-.516,3.184.163,15.126-2.739-20.554.529-.007-.513,16.968-.436-18.595-.9.013-.514,25.485,1.234,13.694-2.477-39.849.994-.009-.511,35.933-.9-27.87-1.283-9.093,1.485-.046-.507,5.428-.89-6.487.161-.007-.516,2.885-.068-3.541-.163.013-.516,10.831.5,13.008-2.127-25.2.591,0-.516,21.252-.494-23.026-1.009,0-.143-.112,0,0-.247-.172.026-.044-.511,10.511-1.562-12.072.265-.007-.511,8.1-.178-9.042-.381.013-.511,17.054.714,11.195-1.666-28.992.619-.006-.511,24.685-.529-21.585-.864-4.238.577-.042-.511,4.253-.582.02.256.007-.258,29.93,1.2,14.216-2.113.022.253,0-.256,30.314,1.166,12.576-2.056.022.253.007-.256,30.66,1.135,11.023-2,.026.253.007-.255,30.973,1.1,9.551-1.941.031.253,0-.256,31.261,1.071,8.156-1.886.066.5-6.259,1.446,30.451,1.044,7.274-1.952.04.253.007-.258,32.643,1.078,5.933-1.9.046.249,0-.258,32.866,1.049,4.656-1.838.057.244,0-.258,11.287.348-.009.514-11.259-.348-3.305,1.307,13.947-.3.007.513-5.837.128,5.405.172-.009.511-14.892-.474-3.612,1.428,17.942-.408.007.516-10.141.227,9.579.317-.009.511-18.76-.617-3.945,1.556L770.2,537l.007.516-14.721.344,14.013.478-.011.513-22.885-.782-4.313,1.7,26.779-.648.009.513-19.6.476,18.725.663-.009.513-27.29-.97-4.723,1.867,31.685-.791.007.511-24.818.621,23.753.877-.011.514-.223-.009.007.432-30.4.782,29.122,1.122-.011.513-.095,0,0,.194-36.414.979,33.721,1.353,1.54-.8.143.476-.562.291.07,0,.009.516h-.051l0,.077-1.08-.046-5.062,2.622,4.573-.135.009.514-56.945,1.644,0-.258-.006.258-42.564-1.866Zm6.946-3.266,32.418,1.655,14.317-2.909Zm49.675-1.331-14.3,2.909,47.19-1.316Zm6.813-.185,32.8,1.593,12.07-2.794Zm47.41-1.267-12.058,2.79,45.266-1.26Zm-92.045-.379L462.5,554.544l46.09-1.234Zm192.132.562,35.38,1.554,6.9-2.726Zm43.739-1.212-6.9,2.728,42.595-1.232ZM576.684,552l33.108,1.525,9.985-2.678Zm45.257-1.21-9.976,2.675,43.445-1.205Zm-137.435.84,30.9,1.5,12.949-2.631Zm46.771-1.206-12.933,2.625,44.241-1.183Zm189.538.531,35.572,1.49,5.064-2.623Zm-91.625-.361,33.362,1.468,8.052-2.576Zm43.214-1.157-8.048,2.572,41.727-1.159Zm-134,.8,31.213,1.439,10.928-2.528Zm44.675-1.153-10.917,2.523,42.491-1.137Zm-88.491-.348-13.676,2.475,43.207-1.117Zm185.266.5,33.566,1.408,6.261-2.473Zm41.277-1.1-6.256,2.468,40.1-1.113Zm-130.7.758,31.475,1.382,9.053-2.429Zm42.683-1.1-9.044,2.426,40.838-1.1Zm-131.3.763,29.443,1.353,11.737-2.382Zm44.091-1.1-11.724,2.384,41.526-1.078Zm94.774.143,31.687,1.329,7.31-2.338Zm40.79-1.053-7.3,2.334,39.272-1.051Zm-128.117.725,29.706,1.3,9.921-2.29Zm42.148-1.053-9.908,2.294,39.935-1.031Zm-128.708.727,27.784,1.278L507,545.967ZM510.3,545.89l-12.411,2.245,40.55-1.014Zm178.936.449,31.852,1.278,5.688-2.25Zm38.988-1.007-5.686,2.248,37.784-1.014Zm-125.061.688,29.924,1.256,8.226-2.208Zm40.3-1-8.22,2.2,38.425-.994Zm-125.625.688,28.048,1.232,10.664-2.164Zm41.61-1-10.653,2.162,39.018-.972Zm-83.279-.311-12.986,2.12,39.56-.954Zm175.166.425,30.1,1.21,6.648-2.127Zm38.536-.959-6.644,2.124,36.989-.956Zm-122.663.657,28.266,1.186,9.022-2.087Zm39.8-.961-9.011,2.082,37.562-.936Zm-123.214.659,26.488,1.161,11.3-2.045Zm41.068-.963-11.283,2.045,38.086-.921Zm173.081.405,30.232,1.161,5.181-2.047Zm36.857-.919-5.179,2.047,35.627-.924Zm-119.816.622,28.447,1.144,7.488-2.01Zm38.075-.917-7.482,2.005,36.18-.9Zm-120.345.626,26.711,1.12,9.7-1.97Zm39.3-.919-9.694,1.97L599,543.232Zm-120.885.63,25.021,1.1,11.834-1.935Zm40.526-.917-11.816,1.93,37.15-.87Zm169.584.379,28.588,1.1,6.06-1.939Zm36.431-.875-6.056,1.935,34.864-.873Zm-117.582.6,26.891,1.078,8.217-1.9Zm37.612-.881-8.209,1.9,35.347-.848Zm-118.1.6,25.243,1.06,10.291-1.864Zm38.8-.877-10.276,1.86,35.794-.837Zm-78.647-.28-12.261,1.825,36.209-.822Zm246.3.637,28.69,1.062,4.727-1.869Zm-80.068-.273,27.037,1.04,6.829-1.831Zm36-.842-6.823,1.831,34.082-.824Zm-115.424.571,25.426,1.023,8.848-1.8Zm37.148-.84-8.837,1.794,34.512-.807Zm-115.936.569,23.861,1,10.785-1.763Zm38.3-.84L495.3,541.264l34.9-.793Zm164.405.342,27.147,1,5.531-1.77Zm34.457-.8-5.524,1.765,32.87-.793Zm-112.841.542,25.576.985,7.5-1.734Zm35.567-.807-7.488,1.73,33.284-.776Zm-113.333.544,24.044.968,9.387-1.7Zm36.682-.8-9.372,1.7,33.661-.764Zm-76.038-.258L463.8,539.92l34-.749Zm238.654.577,27.231.967,4.315-1.706Zm-77.367-.256,25.69.95,6.234-1.673Zm34.053-.771-6.228,1.672,32.117-.749Zm-110.821.518,24.192.932,8.076-1.637Zm35.131-.771-8.063,1.64,32.473-.736Zm-111.306.522,22.735.91,9.842-1.609Zm36.213-.773-9.822,1.6,32.8-.721Zm159.586.3,25.776.917,5.053-1.615Zm32.6-.736-5.049,1.613,31-.725Zm-108.4.491,24.311.9,6.851-1.585Zm33.648-.738-6.84,1.58,31.347-.71Zm-108.864.5,22.883.879,8.572-1.549Zm34.695-.743-8.559,1.552,31.66-.7Zm-73.6-.242L479,537.657l31.938-.681Zm231.521.531,25.833.886,3.947-1.56Zm-74.846-.24,24.4.868,5.7-1.531Zm32.224-.71-5.694,1.532,30.27-.688Zm-106.508.476,23,.848,7.38-1.5Zm33.238-.712-7.371,1.5,30.572-.674Zm-72.71-.231-8.971,1.463,30.83-.659Zm155.09.269,24.465.84,4.623-1.479Zm30.86-.677-4.619,1.474,29.243-.663Zm-104.227.447,23.095.822,6.263-1.45Zm31.836-.679-6.254,1.448,29.523-.652Zm-71.844-.229-7.821,1.417,29.778-.637Zm153.541.253,24.507.809,3.614-1.428Zm-41.98-.873-5.209,1.4,28.529-.63Zm-71-.223-6.741,1.366,28.776-.61Zm109.628-.6L719.8,534.29l27.579-.606Z" transform="translate(530.516 416.372)" fill="none" stroke="#8ecdf4" stroke-miterlimit="10" stroke-width="0.5"/><path d="M109.547,900.676l-.007-.256-.029.253L.132,878.163l.059-.5,109.119,22.456L86.82,691.849.309,818.494l-.293-.339L86.809,691.093l.145.174-.086-.229.108-.073-.031-.024L159.714,525.33,57.2,678.691l-.293-.337L160.657,523.138,137.778,402.306,45.768,673.737l-.359-.209,91.726-270.587L12.1,588.6l10.732,75.2-.383.093L11.748,588.882l-11.51,6.3-.15-.476,5.077-2.774-4.938,2.3-.13-.487,11.492-5.346L0,566.015l.324-.286L11.909,588.1l97.4-154.533L.278,539.972l-.231-.412L110.376,431.89,137.7,401.325l.128.192.139-.181,56.736,73.907-.275.364-56.24-73.259,22.861,120.735,28.584,40.133,91.893-211.469.17.128.181-.1,44.215,135.89-.361.2L282.633,355.4l28,134.958-.189.068.194-.038,27.689,252.916,83.352-272.18.181.095-.117-.2,107.368-105.6.117.2.106-.216,95.836,80.555,96-139.343.146.17.183-.088,72.951,258.859-.368.181-69.861-247.9,40.4,165.382-.185.079.192-.053,44.547,307.84,40.636-71.8.156.152.031-.254,52.714,10.827-.031.251h0l.128-.194,32.238,36.409-.128.194.159-.15,53.1,98.641,48.587-13.037-26.418.952-.011-.516,23.59-.849L1007.638,850l.02-.514,31.327,2.049,19.183-5.15-52.113,1.787-.011-.513L1055,845.985l-42.853-2.616-8.542,1.972-.068-.507,5.989-1.382-7.4.238-.011-.513,4.539-.146-5.412-.333.018-.511,10.855.663,18.491-4.275-32.081,1-.009-.516,28.888-.9-31.726-1.818.015-.514,37.489,2.151,16.532-3.823-54.5,1.637-.011-.511,50.98-1.534-36.29-1.961-15.417,3.131-.062-.507,12.506-2.536-14.767.426-.009-.514,11.545-.333-12.9-.7.015-.516,19.068,1.034,18.789-3.815.031.253.007-.256,40.958,2.091,15.871-3.671.035.253.007-.256,41.555,2.012,13.158-3.528.037.249.009-.258,42.079,1.939,10.63-3.4.093.5-8.91,2.852,51.429-1.49,0,.255.006-.255,44.589,1.961,6.611-3.422.073.236,0-.256,5.461.229-.013.513-5.419-.225-5.589,2.889,9.471-.284.009.513-3.632.11,3.228.141-.013.511-10.124-.443-6.188,3.2,14.822-.465.009.513-9.293.293,8.656.4-.014.516-15.24-.705-6.873,3.559,20.686-.679.011.513-15.47.509,14.555.7-.013.513-20.833-1.007-7.658,3.962,27.145-.93.011.513-22.239.76,20.994,1.071-.015.513-26.964-1.377-8.568,4.434,34.291-1.229.011.511-29.7,1.069L1280.5,845.9l-.018.513-33.716-1.822-9.63,4.985,42.247-1.6.011.516-37.965,1.43,35.841,2.06-.018.509-41.191-2.363-10.875,5.626,51.145-2.034.011.513-47.183,1.878,44.472,2.719-.018.514-49.512-3.028-12.356,6.4,61.176-2.576.013.513L862.711,877.91l-.007-.256-.152.163-53.536-85.785L709.5,854.619l-.086-.231.037.253L604.166,880.988l-.037-.253.007.256-111.59,4.44-.007-.256-.09.229-116.213-77.88L246.173,895.215l-.09-.229.007.256ZM221,605.06,109.862,900.151l136-5.414ZM87.171,691.413l22.475,208.151L220.685,604.729Zm134.2-86.6,24.853,289.532,91.748-150.024ZM338.236,744.7l-91.426,149.5,129.124-87.056ZM566.111,567.67,492.806,884.911l111.1-4.423ZM376.494,807.119l115.8,77.6L458.378,576.469Zm82.208-231.3L492.608,884,565.9,566.8ZM671.1,410.213l-66.73,470.2L709.2,854.183ZM566.378,566.6l37.767,312.62,66.683-469.87ZM902.718,730.922,862.986,877.388l94.176-3.962ZM809.377,791.8l53.261,85.346,39.7-146.357Zm94.251-59.632,53.955,141.212,30.153-8.09ZM988.111,865.71l-28.344,7.6,82.633-3.477Zm4.418-.178,54.2,4.119,22.438-7.169Zm78.521-3.123-22.422,7.166,77.8-3.272Zm4.648-.187,55.277,3.885,17.127-6.77Zm73.9-2.94-17.118,6.765,73.363-3.087Zm-134.523-.809-24.714,6.633,76-3.025Zm139.38.615,56.136,3.669,12.36-6.4Zm-134.64-.8,51.2,3.6,19.63-6.276Zm72.695-2.739-19.62,6.269,71.8-2.86ZM904.32,732.454,985.01,860.17l-50.235-93.317Zm193.154,122.908,52.079,3.4,15.031-5.939Zm68.6-2.587-15.025,5.934,67.926-2.7Zm-127.066-.721-21.7,5.82,70.2-2.649Zm132.236.52,52.789,3.226,10.882-5.628Zm-127.178-.705,48.4,3.167,17.288-5.525Zm67.545-2.426-17.272,5.523,66.516-2.51ZM764.438,484.659,709.681,853.936l99.168-62.371ZM671.39,408.968l38.077,443.726,54.755-369.27Zm445.5,440.284,49.14,3.006,13.273-5.245Zm63.9-2.292-13.266,5.242,63.109-2.382Zm-120.389-.646-19.168,5.143,65.072-2.336Zm125.87.447L1236,849.612l9.632-4.98Zm-120.5-.63,45.808,2.8,15.309-4.894Zm62.964-2.157-15.3,4.892,61.824-2.221Zm5.588-.192,46.418,2.662,11.783-4.654Zm59.68-2.041-11.776,4.654,58.8-2.115Zm-176.4,1.446,42.765,2.614,17.037-4.57Zm62.018-2.032-17.021,4.57,60.5-2.074Zm120.173.383,46.907,2.539,8.57-4.438Zm-114.49-.566,43.388,2.486,13.625-4.354Zm58.851-1.926-13.619,4.352,57.622-1.972Zm-110.946-.551-18.471,4.273,59.166-1.939Zm116.845.359,43.9,2.371,10.512-4.154Zm55.879-1.831-10.5,4.154,54.929-1.884Zm-166.944,1.293,40.6,2.327,15.2-4.077Zm58-1.818-15.186,4.072,56.412-1.844Zm115.045.324,44.3,2.263,7.662-3.964Zm-109.047-.518,41.123,2.226,12.182-3.891Zm55.132-1.723-12.171,3.892,53.834-1.763Zm-105.821-.5L1035.79,837.9l55.174-1.728Zm112.033.3,41.55,2.122,9.412-3.72Zm52.432-1.639-9.41,3.718,51.416-1.686ZM1058.4,833.9l38.564,2.083,13.612-3.651Zm54.371-1.635-13.6,3.649,52.707-1.653Zm110.409.276,41.89,2.027,6.875-3.555Zm-104.1-.465,39,1.99,10.932-3.491Zm51.751-1.556-10.924,3.491,50.4-1.578ZM1016.08,831.61l36.2,1.957,14.84-3.431Zm53.607-1.549-14.824,3.431,51.561-1.551Zm107.672.262,39.36,1.906,8.462-3.345Zm49.285-1.481-8.458,3.341,48.221-1.512Zm-150.549,1.034,36.643,1.873,12.239-3.286Zm51.066-1.472-12.228,3.281,49.343-1.483Zm-98.454-.434-15.855,3.222,50.4-1.457Zm204.658.67,39.642,1.825,6.19-3.2Zm-99.578-.432L1170.8,830l9.844-3.147Zm48.666-1.4-9.837,3.145,47.256-1.419Zm-96.874-.419-13.35,3.089,48.274-1.4Zm103.7.22,37.308,1.717,7.634-3.017Zm46.4-1.338-7.629,3.015,45.292-1.362Zm-95.342-.4-11.03,2.957,46.269-1.338ZM338.5,744.305l37.7,62.446,81.589-229.817Zm511.564-24.582L809.714,791l92.336-60.6ZM221.4,604.156,337.967,743.62,310.306,490.964ZM421.874,471.872,338.811,743.113,458.243,575.532ZM160.91,523.636,87.55,690.6l133.232-86.5-31.246-40.268.139-.181-.143.176Zm29.1,40.085,31.1,40.083L309.487,491.3ZM110.638,432.269,19.679,576.577,135.852,404.071Zm418.535-65.85L458.786,575.3l107.141-9.009ZM422.105,471.305l36.367,103.652,70.273-208.538Zm107.427-105.12,36.72,199.7,58.682-119.51Zm95.814,80.3L567.8,563.681,670.134,409.615ZM281.634,352.542,190.146,563.075l120.067-72.787ZM671.425,408.39l92.667,74.328L721.257,307.387Zm48.406-99.057L626.3,445.095l44.713-36.806Z" transform="translate(0 145.544)" fill="none" stroke="#8ecdf4" stroke-miterlimit="10" stroke-width="0.5"/><path d="M.1,999.185l-.015-.516L138.4,991.133,96.2,979.151.117,993.453l-.044-.509,90.884-13.529L.1,984.028l-.015-.516,94.569-4.8L57.3,968.108.117,975.923l-.042-.511,51.465-7.034L.1,970.821l-.015-.514,55.658-2.642-33.269-9.447L.114,961.043l-.037-.509L16.193,958.5.1,959.217l-.015-.511,20.82-.932L.055,951.854l.082-.5L22.5,957.7l115.213-14.555L.1,948.932l-.011-.509,141.736-5.963-32.359-7.05L.114,948.256l-.037-.509L109.457,934.9l.018.253.033-.253,34.316,7.47L246,929.46l.018.258.026-.253,39.3,6.939,90.7-94.637.121.2.168-.132,40.819,89.024,75.3-11.206.022.254.02-.254,47.282,6.06,64.264-10.5.024.256.018-.256,50.341,5.674,54.847-32,.079.234.073-.238,52.357,27.429L808.842,826.3l.324.293-46.934,89.765,100.4-4.225.007.256.016-.256,59.676,5.419,35.041-9.4.04.251.013-.256,61.546,5.095,27.669-8.844.047.247.011-.256,63.1,4.8,21.083-8.33.057.244.011-.256,64.363,4.526,15.185-7.858.073.236.009-.255,58.865,3.85-.02.513-58.823-3.845-14.13,7.31,72.563-3.237.013.516-69.233,3.087,139.61,9.815,7.032-159.251.2.013-.181-.1,76.487-241.316.181.1-.13-.192,75.183-86.1,71.3-133.391.161.15.077-.238,81.4,45.491-.077.234.117-.2L1739,425.581l-19.906-56.447.355-.214,20.113,57.033,66.828-80.912.265.375-67.025,81.155-.132-.189.106.214-71.919,61.388-.108-.218,0,.258-77.261.547L1508.357,689.61l-89.02,243.462-.176-.113.009.258L985.724,958.734l-.018-.509,118.064-6.95-79.048-7.951ZM97.762,979.07l42.176,11.975,125.336-20.481Zm172.085-8.733L144.662,990.789,319.9,981.234Zm1.93-.1,50.028,10.893,103.073-18.665Zm157.06-7.969L325.88,980.912l159.346-8.691ZM58.88,968.029l37.339,10.6,122.095-18.174Zm164.511-7.812L101.462,978.369l166.464-8.453Zm207.716,1.93,56.348,9.952,84.1-17.083Zm143.847-7.3L490.935,971.91l145.5-7.933Zm-349.609,5.278,44.51,9.694,101.867-16.646Zm150.824-7.162L274.428,969.585l152.142-7.724Zm-352.1,5.183,33.256,9.445,118.69-16.226ZM181.6,951.118l-118.512,16.2L221.447,959.8Zm395.935,3.594,61.432,9.127,67.858-15.69ZM709.7,948l-67.8,15.675,133.365-7.27Zm-331.226,4.844,50.365,8.9,84.48-15.3Zm138.71-6.582L432.8,961.548l139.57-7.085Zm-333.606,4.762L223.4,959.7l100.25-14.921Zm145.015-6.468-100.115,14.9,145.392-6.9ZM143.81,942.89,28.787,957.423l150.85-6.73Zm568.758,4.969,65.506,8.394,53.88-14.454Zm121.782-6.181-53.838,14.447,122.665-6.69ZM519.807,946.14l55.138,8.187,69.464-14.108Zm127.926-6.076-69.392,14.092,128.474-6.521Zm-316.807,4.39,45.246,7.991,84.275-13.771Zm133.86-5.972-84.167,13.753,133.933-6.362Zm563.255,4.659,78.925,7.94,26.442-13.682Zm106.548-5.8-26.431,13.676,107.414-6.32ZM145.8,942.8l35.808,7.8,98.348-13.443ZM285.4,936.931l-98.2,13.425,139.063-6.208Zm552.087,4.586,68.752,7.748L948.046,935.9ZM950,935.809l-41.782,13.35,113.189-6.17Zm-299.343,4.115,59.028,7.565,56.441-13.05Zm118.293-5.615-56.392,13.037,118.633-6.023Zm-301.5,4.055,49.724,7.387L587.548,933Zm123.882-5.527-70.293,12.731L644.8,939.69Zm546.761,4.306,80.866,7.343,16.909-12.673Zm98.617-5.37-16.907,12.669,99.333-5.849ZM287.76,936.834l40.834,7.208L412.228,931.6Zm129.292-5.441-83.517,12.431,128.582-5.736Zm536.331,4.242,71.322,7.171,31.341-12.382Zm104.21-5.289-31.325,12.38,104.754-5.714Zm-811.581-.37-96.087,12.14,133.12-5.6Zm526.141,4.178,62.175,7.008,45.107-12.1Zm109.644-5.2-45.074,12.094,109.864-5.577ZM594.309,932.7l53.413,6.845,58.237-11.827Zm114.915-5.126L651.049,939.39l114.679-5.445Zm531.185,3.987,82.281,6.809,8.663-11.767Zm91.5-4.978-8.663,11.766,92.1-5.423Zm-912.159,4.692,45.03,6.688,70.745-11.558Zm120.025-5.046-70.654,11.545,119.228-5.322Zm521.423,3.931,73.325,6.657,22.242-11.512Zm96.741-4.91-22.235,11.51,97.215-5.3Zm-781.827-82.9-90.13,94.042,130.726-5.5Zm509.14,86.433,64.713,6.508,35.212-11.257Zm101.856-4.839-35.19,11.25,102.017-5.181Zm-274.627,3.484,56.447,6.362,47.6-11Zm106.828-4.764-47.555,10.992,106.554-5.06Zm513.1,3.444,86.556,6.582,1.545-85.941ZM542.8,926.1l48.525,6.221,59.42-10.761Zm111.66-4.694-59.354,10.745,110.841-4.943Zm766.454-75.066-1.536,85.434,87.713-239.886Zm-259.152,78.713,74.857,6.2,14.306-10.723Zm90-4.562-14.3,10.719,90.435-4.93Zm-759.288-.326-70.6,10.511,114.878-4.837Zm498.339,3.6,66.736,6.06,26.548-10.492Zm94.815-4.5L1059.1,929.751l94.965-4.82Zm-262.782,3.24,58.926,5.926,38.249-10.265Zm99.509-4.441-38.221,10.256,99.242-4.714Zm-264.578,3.2,51.432,5.8,49.433-10.038Zm104.08-4.379-49.38,10.031,103.286-4.608Zm493.912,3.4,75.985,5.778,7.367-10.011Zm-651.7-4.555-60.041,9.809,107.105-4.507Zm485.485,3.352,68.327,5.655,18.938-9.8Zm88.431-4.2-18.929,9.8,88.607-4.5Zm161.741,1.084-6.4,8.7,73.3-66.024ZM926.139,917.9l60.94,5.533,30.014-9.595ZM1019,913.755l-29.992,9.586,92.647-4.4Zm-253.548,2.977,53.838,5.419,40.609-9.392Zm97.193-4.086-40.57,9.379,96.466-4.3ZM709.352,889.4l-53.9,31.448L760.91,916.41Zm472.759,25.285,69.557,5.289,12.239-9.176Zm82.631-3.92-12.237,9.172,82.852-4.2Zm-241.721,2.812,62.562,5.179,22.735-8.985Zm86.816-3.872-22.722,8.978,86.677-4.117ZM957.422,908.66l-32.762,8.788,90.291-4.028Zm464.343-360.715-81.829,367.232,80.588-69.059ZM1114.073,909.511l63.847,4.855,16.29-8.431Zm81.3-3.623-16.283,8.425,81.247-3.861Zm151.468-149.559-6.939,157.2,81.177-364.316ZM1046.7,904.9l-25.82,8.253,84.674-3.779Zm84.253-3.546-19.644,7.764,79.555-3.55ZM1502.57,498.906l-81.318,345.962,86.732-155.454Zm-80.405,47.373-1.241,298.239,81.483-346.656Zm.718-29.871-72.752,229.524,71.646-199.882Zm80.042-18.784,5.426,190.913,81.507-199.931Zm-4.751-68.157L1422.7,545.393l79.819-48.163Zm-74.85,85.6-1.131,30.307,74.253-114.045Zm75.225-85.9,4.345,67.847L1578.943,455Zm80.912,26.109-75.544,41.733,86-8.923Zm.443.057,10.426,32.724,75.868-.535Zm0-.533,87.431,32.612-16.426-145.9Zm71.4-113.32,16.419,145.857,71.428-60.967Zm-152.646,87.193,80.692,25.933-9.857-158.46Zm71.207-132.853,9.857,158.466,71-113.282Zm142.948,70.635-.315-.3,49.151-88.385.161.15.179-.1,24.617,72.8-.359.207-24.053-71.128,7.982,75.472-.385.073-8.048-76.078-18.22,83.383-.377-.141,18.172-83.158Z" transform="translate(0.066 110.812)" fill="none" stroke="#8ecdf4" stroke-miterlimit="10" stroke-width="0.5"/><path d="M.12,1239.129l-.026-.511,203.373-17.6-70.709-28.84L.14,1222.844l-.068-.507,129.332-29.9L.118,1202.449l-.024-.516,131.59-10.188-59.052-24.084-72.5,14.723-.059-.5,68.689-13.949L.115,1172.737l-.02-.509,71.452-5.009-50.019-20.4-21.4,3.874-.051-.507,17.056-3.092L.115,1148.186l-.02-.511,20.336-1.3L.047,1138.057l.117-.492,21.4,8.729,163.66-29.637L.115,1127.553l-.02-.511,187.835-11.058-48-13.627L.129,1125.2l-.046-.509,139.834-22.848.022.253.042-.251,49.473,14.046,132.333-23.967.026.256.033-.253,58.45,12.731L487.438,1082.9l.029.253.026-.253,65.612,11.587,85.842-19.846.035.251.022-.254,71.313,10.591,67.737-18.171.037.251.02-.258,75.844,9.72,52.26-16.7.046.249.018-.258,79.425,8.951,38.974-15.4.112.494-38.031,15.029,87.2,9.824,32.978-17.065.073.24.013-.255,90.939,9.145,20.959-15.708.1.223.013-.258,92.956,8.442,10.652-14.474.141.178.011-.253,94.357,7.807,1.831-13.271.192.042-.051-.247,95.269-34.2L1508,800.3l.2-.009.117-.2,95.677,92.581L1590.013,599.12l.2-.013.154-.159,96.171,163.881L1667.39,598.6l.194-.04.059-.242,95.364,41.22-23.689-102.288.187-.073-.112-.212,93.032-86.19-25.864,5.5-.029-.256-.163-.145,91.62-172.383.159.148-.059-.247,65.952-27.257.119.489-64.8,26.781,33.714.7,0,.256.192-.053L1979,563.169l63.061-377.329.19.055.145-.174,125.682,177.656-.143.174-.124.2-71.069-74.9-70.848,191.365L1950.16,810.267l-.187-.073.179.1-74.031,223.039-.359-.2,74.026-223.025,74.519-324.778L1925.65,804.3l-.361-.194,99.632-322.129L1979.173,564.5l-57.366,238.839-.373-.154,57.318-238.641-113.339-51.028,34.155,284.263-.386.079-34.1-283.829-74.021,216.247,45.528,51.954-.258.39-43.62-49.779,30.087,46.039-.147.163h0l.194-.046,37.595,261.742-.386.1-37.48-260.944-86.977,252.147,89.785,25.285-.082.5-89.513-25.208,30.369,53.338-.156.156.013.256Zm133.732-47.037,70.69,28.831,179.721-48.214Zm253.13-19.591-179.593,48.183,267.727-23.163Zm1.441-.117,88.094,25.012,131.451-42.013Zm221.705-17.16-131.372,41.984,232.005-20.073ZM73.747,1167.578l59.034,24.078,175.1-40.481Zm237.347-16.625L136.135,1191.4l249.41-19.311Zm300.778,4.128,100.58,21.9,93.443-36.925Zm195.693-15.146-93.4,36.907,202.959-17.554Zm-495,10.913,74.418,21.129,132.891-35.656ZM522.5,1136.14l-132.8,35.631,218.666-16.933Zm-499.836,10.6,50,20.4,169.588-34.443Zm223.3-14.282L76.53,1166.868l233.1-16.331Zm563.621,7.314,109.479,19.335,63.2-32.7ZM983.5,1126.316,920.32,1159.01l179.013-15.488Zm-459.207,9.694,85.822,18.689,98.992-31.638ZM711.2,1122.92l-98.93,31.616,193.245-14.963Zm-463.746,9.438,63.644,18.07,132.428-30.616Zm199.17-12.739-132.318,30.591L520.7,1135.748Zm-257.189-3.207L25.951,1146.019l218.517-13.983Zm796.314,9.723,115.732,17.191,38.912-29.163Zm155.511-12.032-38.9,29.157L1261.4,1129.5Zm-427.978,8.665,94.247,16.647,71.518-28.262Zm167.4-11.721L809.2,1139.292l171.988-13.315ZM448.462,1119.5l74.028,16.12,102.085-27.387Zm178.659-11.426-102.008,27.365L709.1,1122.55Zm-436.16,8.248,55.008,15.617,130.744-26.554Zm189.333-11.146L249.677,1131.7l195.111-12.486Zm763.431,8.729,120,15.379,19.258-26.16Zm139.823-10.809-19.253,26.158,142.2-12.3Zm-400.527,7.783,100.424,14.914,49.067-25.391Zm150.712-10.551L984.683,1125.7l154.03-11.926Zm-404.472,7.605,81.922,14.467,77.109-24.641Zm161.082-10.3-77.063,24.626,165.027-11.561Zm-408.178,7.433,64.46,14.035,103.482-23.921ZM553.112,1095l-103.394,23.9,175.252-11.21Zm733.066,7.872,122.738,13.834,3.253-23.588Zm126.387-9.754-3.25,23.586,127.824-11.06Zm-1090.756-.679-128.144,23.2,184.758-10.877Zm714.489,7.7,104.877,13.442,30.6-22.936Zm136.335-9.542-30.594,22.925,138.724-10.739Zm-379.881,6.873,87.891,13.057,56.405-22.288Zm145.9-9.33-56.374,22.277,148.825-10.428Zm-383.354,6.73,71.809,12.682,80.741-21.662Zm155.035-9.123-80.681,21.647,158.25-10.126Zm819.831-1.7L1540,1105.4l115.406-9.987Zm-114.871,8.832,124.232,12.495-9.828-21.354Zm-927.827-9.469-103.59,21.039,167.041-9.835Zm687.937,6.981,107.989,12.173,15.318-20.814Zm123.871-8.665-15.315,20.809,125.552-9.72Zm-357.963,6.239,92.361,11.838,39.133-20.252Zm132.7-8.482-39.12,20.239,134.883-9.45Zm-361.2,6.115,77.506,11.512,61.657-19.708Zm141.174-8.308-61.617,19.692,143.587-9.187Zm783.834-1.534,20.541,19.406,104.6-9.046Zm-104.957,8.019,124.768,11.331-20.534-19.4Zm-893.873-8.627-82.878,19.159,151.732-8.932Zm663.227,6.358,110.027,11.065,2.611-18.956Zm113.038-7.891-2.614,18.956,114.109-8.834ZM1076.9,1079.29l95.648,10.781,24.653-18.48Zm121.151-7.746-24.646,18.474,122.782-8.6Zm-341.327,5.58,81.893,10.494,45.548-18Zm129.023-7.592-45.526,17.986,130.852-8.37Zm652.418,5.738,127.423,10.547-30.345-53.3Zm-860.06-7.706-65.3,17.519,138.411-8.149Zm743.833-1.4,7.975,17.325,104.031-8.052Zm-103.648,7.206,111.154,10.093-7.975-17.319Zm-217.157-2.032,97.991,9.855,12.457-16.92Zm111.008-7.089-12.453,16.922,112.209-7.865Zm-205.1-1.858-31.878,16.492,119.721-7.658Zm-200.759-1.816-50.308,16.076,126.755-7.462Zm713.96-1.428,16.949,16.012,95.58-42.09Zm-95.3,6.752,111.55,9.231-16.8-15.871Zm-209.557-1.871,99.547,9.039,2.144-15.547Zm102.09-6.507-2.144,15.545,102.885-7.211Zm-198.412-1.723-20.25,15.179,109.928-7.039Zm295.777-45.913,6.9,55.726,97.028-6.8Zm-96.6,47.185,103.108,8.533-6.906-55.755Zm-95.38-7.38-10.309,14.009,101.261-6.483Zm385.65-196-88.385,204.959,114.961-26.642Zm-193.555,155.7,104.562,49.226-15.45-164.875Zm89.471-116.015L1619.87,1058.2l88.319-204.812Zm-185.08,150.579-1.776,12.892,92.929-45.616ZM1708.819,853.1l26.568,178.277,86.854-251.79ZM1508.4,800.811l6.369,208.1,89.136-115.684Zm178.363-36.51-81.992,128.408,103.577-39.92Zm-96.323-164.377,13.929,292.611,82.221-128.763Zm96.651,164.04,21.585,88.484,81.583-121.663Zm103.723-33.229L1709.4,852.155l112.936-73.2Zm-27.571-90.3L1687.36,763.349l103.194-33.187Zm-95.421-41.506,19.148,164.236,76-123.108ZM1763.535,640l27.295,89.685,73.753-215.471Zm-23.8-102.722,23.612,101.953,69.379-188.106Zm93.526-86.42-69.312,187.921,100.968-125.684Zm32.167,62.119,113.306,51.013L1933.02,285.25Zm176.916-326.453-62.871,376.218,116.969-274.278Zm51.2,109.794L1980.775,560.732l44.761-80.741ZM1833.473,450.352l31.649,62.223,67.294-226.705Zm63.2-163.486-89.716,168.8,26.144-5.562Zm1.6-2.971-63.955,164.231,98.363-163.517Zm198.547,4.377,69.151,72.88L2044,188.755Zm207.824,167.691-.282-.359,49.118-66.434-50.819,65.462-.273-.366,62.271-80.218h0l0,0,.278.359Z" transform="translate(0.057 0.02)" fill="none" stroke="#8ecdf4" stroke-miterlimit="10" stroke-width="0.5"/><path d="M53.66,1483.352l-.048-.509,191.488-31.22-130.008-94.1L.181,1402.934l-.112-.494,113.038-44.662L.146,1372.86l-.042-.513,114.366-15.267-95.346-69.01L.172,1294.125l-.095-.5,16.55-5.284L.141,1290.2l-.033-.514,18.385-2.08L.031,1274.25l.187-.448,18.96,13.722,270.166-86.346L.139,1229.524l-.029-.511,290.55-28.478-86.12-35.12L.163,1220.244l-.077-.5L204.512,1164.9l.037.251.059-.245,87.1,35.521,184.787-59.059.046.254.042-.254L583.765,1171.8l128.662-50.841.055.245.033-.249,121.057,26.36,85.459-44.224.073.238.024-.249,130.544,23.051,51.777-38.8.1.223.022-.258,136.87,20.333,25.241-34.291.141.176.02-.256,140.872,18.055,4.192-30.413.194.044.018-.254,143.084,16.127-12.455-27.057.17-.132.013-.256,143.962,14.48-25.682-24.26.117-.207.013-.255L1802.2,1052.19l-36.268-21.893.163-.465,37.143,22.416,105.834-91.225,90.186-277.042L1879.575,975.656l-.344-.242,120.946-294.766-50.039,73.678-.293-.341,51.147-75.309.146.17.185-.086,56.575,211.26-.368.172-56.407-210.636L1909.539,960.9l84.231-10.512.037.514-84.22,10.507,25.023,45.275-.317.3-25.113-45.438-105.335,90.8,32.22,2.927-.026.511-31.733-2.882,14.02,8.464-.163.465-14.943-9.02-116.056,11.373,94.787,9.533-.031.516-96.668-9.722,76.811,72.556,147.3-106.784.093.223-.057-.24,80.1-32.709,141.374-177.035.137.187v0l-.082-.232,4.579-2.737-.158-.143,111-213.177-86.8,37.405L2097.517,852.68l-.366-.185,62.067-210.982.183.09-.062-.242,87.378-37.65,86.314-156.754.158.15.141-.176,123.558,166.5,79.795-162.177.163.134-.094-.222,68.49-49.468-79.25,49.7-.168-.463,84.718-53.124-123.434-10.214-32.842,62.205-.322-.291,32.905-62.326.161.148.011-.256,124.294,10.282-.013.253.022-.253,69.314,10.45-.021.253.062-.24,139.88,59.319-.119.489-139.865-59.312-66.529-10.031,206.5,70.542-.1.5L2612.1,398.141l164.526,180.444,43.724-69.877.3.326-43.635,69.731L2820.531,588l-.067.507-43.046-9.139,43.2,41.689-.233.412L2776.7,579.312l-61.425,118.763-.326-.284,61.406-118.728L2537.49,452.005l147.562,234.7-.3.328L2536.865,451.818,2457.22,613.7l36.015,15.177-.119.489-32.246-13.59,26.8,15.022-.154.469-30.546-17.116-23.445,35.631-.293-.33,23.268-35.373-209.166-9.87,76.331,97.231-.273.368L2246.9,604.368l-61.794,180.816-.357-.209L2245.76,606.45,2135.854,817.518l259.135-155,.08.234h0l.033-.253,327.391,70.374L2510.7,623.324l.141-.472,213.468,110.4,96.2,5.3-.018.514-94.143-5.192,94.2,28.758-.091.5-94.892-28.972,95.036,70.042-.194.447-96.155-70.87-120.136,49.461,216.447,91.955-.119.487-215.955-91.744,216.134,217.787-.238.407L2603.494,783.6l-140.548,221.785,357.588,84.815-.071.5-357.293-84.745,333.218,428.5,23.94-54.645.34.256L2796.6,1435l-.17-.132v0l.066.238-99.525,48.223-.134-.483,98.786-47.862-506.437-89.44,227.5,137.311-.166.467L2287.9,1345.338l-232.625,68.012,319.126,69.5-.064.5-319.295-69.528,73.116,69.066-.229.417-73.724-69.641-238.343,69.683-.086-.5,237.448-69.42-384.105-83.641,70.522,153.178-.335.264-70.672-153.508-304.3,63.7,314.956,89.424-.081.5-315.776-89.655-12.332,89.45-.385-.091,12.318-89.357-394.808,82.651,15.955,6.505-.115.491-16.638-6.785-4.947,6.717-.282-.355,4.623-6.281-32.059,6.712-.064-.507,31.814-6.662L718.4,1374.991,573.864,1483.317l-.194-.445,143.766-107.745-471.093,76.807,42.745,30.938-.19.45-43.19-31.259-60.438,31.272-.143-.476,59.087-30.576ZM719.3,1374.823l248,101.149,118.428-160.89Zm367.022-59.81L967.914,1475.888l394.3-82.543Zm-970.569,42.41L245.734,1451.5l290.217-150.174Zm421.592-56.275L247.228,1451.271l470.227-76.666Zm1750.911,43.721,507.616,89.646L2462.61,1005.959Zm-375.947-65.874,141.976,134.116,232.521-67.979Zm-242.365,50.449,383.508,83.513-141.941-134.083Zm-582.52-14.639,275.687,78.275,17.376-126.059Zm293.459-47.787-17.376,126.055,304-63.64Zm-842.574,33.989,180.043,73.429L876.6,1255.84Zm339.219-45.275L719.324,1374.3l365.771-59.636ZM19.809,1287.979l95.329,68.995,282.771-111.735Zm379.964-42.941L117.126,1356.725l419.243-55.976Zm1708.539-67.247,179.56,166.918,174.2-338.63Zm-195.975,100.688,374.823,66.2-179.289-166.666Zm-290.191-50.729,46.685,101.407,241.391-50.533Zm-240.053,39.012,286.253,62.333-46.683-101.4Zm-503.346-11.21,207.45,58.9,70.69-96.038Zm278.721-37.187-70.681,96.023,292.58-47.7Zm-756.683,26.55,136.549,55.692L713.209,1209.6Zm313.762-35.457-175.814,90.977,337.52-45.063Zm-422.852-8.5-270.017,86.3,377.086-42.626Zm1531.579-6.071,88.319,83.427,195.133-100.269Zm-199.986,32.548,287.527,50.777-88.162-83.284Zm-464.414-9.284,221.7,48.278,10.937-79.337Zm233.032-31.061-10.934,79.334,239.273-39.012ZM715.84,1209.3l161.629,45.889,100.816-75.557Zm263.35-29.756L878.4,1255.084l277.525-37.053Zm-686.452,21.3L399.776,1244.5,582,1172.493ZM583.78,1172.33,401.636,1244.3,713.22,1209.08ZM1591.2,1160.536l30.666,66.613,199.177-32.473Zm-197.789,26.3,227.975,40.261-30.664-66.608Zm-412.7-7.481,176.611,38.458,46.905-63.724Zm224.094-25.309-46.9,63.715,232.171-30.995Zm-619.678,18.143,129.378,36.731,117.811-60.96Zm248.48-24.346-117.767,60.938L977.589,1179.2Zm-357.073-5.963L294.054,1200.2l288.358-28.262ZM1989.58,998.14l-166.338,196.233,284.243-16.889Zm-227.15,139.27,60.262,56.926,165.8-195.6Zm-169.773,22.826,229.326,34.062-59.991-56.67Zm-386.135-6.4,185.067,32.683,7.506-54.448Zm192.971-21.77-7.506,54.45L1589,1160.207Zm-564.26,15.615,143.882,31.332,69.746-52.271Zm214.515-21.012-69.724,52.256,222.933-25.2Zm940.2-128.746,117.934,179.388L2264.478,904.94Zm275.085-93.1-156.58,272.352,353.571-171.618ZM712.495,1121.471l-126.954,50.162,246.413-24.152Zm856.783-8.557,21.653,47.037,169.143-22.585Zm-167.973,18.9,189.15,28.095-21.651-47.029Zm-349.717-5.344,153.078,27.032,33.348-45.3Zm187-18.31-33.341,45.3,192.116-21.722Zm-319.46-4.566-84.26,43.6,212.966-20.873Zm651.92,9.033,190.3,24.386-43.4-40.993Zm338.491-81.9L1767.221,1133.9,1986.9,999.143ZM1240.6,1107.947l158.568,23.55,5.463-39.629Zm164.429-16.083-5.463,39.631,167.2-18.9Zm-303.446-4.053-51.028,38.247,185.862-18.216Zm451.346-10.4,16.083,34.933,146.706-16.583Zm-145.782,14.214,161.389,20.684-16.078-34.929ZM1263.9,1073.779l-24.886,33.809,163.583-16.034Zm291.115,3.352,162.3,18.291-32.8-30.984Zm-145.753-15.915-4.147,30.091,145.013-14.211Zm131.02-11.3,12.4,26.922,129.3-12.673ZM1659,1039.7l25.626,24.212,115.9-11.358Zm606.6-135.147,196.925,100.7,140.4-221.542Zm-134.547-83.546L1990.279,997.279,2264.4,904.44Zm.423-.3,133.437,83.484L2394.49,663.373Zm263.666-157.631L2265.445,904.076l337.436-120.885Zm1.421.258,206.919,119.644,119.948-49.382ZM2247.21,603.687l209.228,9.875L2333.211,447.5ZM2537.3,451.351,2775.566,578.1,2611.28,397.914ZM2062.571,664.393l-37.037-240.26.192-.051.17-.13L2127.76,648.959l-.337.26-101.276-223.7,36.808,238.777Zm93.7-22.052L2096.5,232.457l.192-.051.17-.128,141.8,320.681-.339.258L2097.1,233.844l59.561,408.4Zm82.671-89.868L2167.767,307.6l.366-.181,71.175,244.866Zm8.176-8.729-.346-.238,57.569-143.885.174.119.106-.214,56.564,47.95-.212.434-55.914-47.4,22.29,53.2-.346.247-22.484-53.671ZM2421.836,449.1l-57.19-130.788.168-.126.146-.176,86.468,122.959-.287.348-85.291-121.281,56.326,128.811Z" transform="translate(0.037 56.061)" fill="none" stroke="#8ecdf4" stroke-miterlimit="10" stroke-width="0.5"/><path d="M2820.419,1501.85l-24.064-10.672.062-.245.027-.251,24.064,4.249-.053.509-22.054-3.894,22.143,9.815ZM1718.032,1152.069l-.1-.5,63.929-21.79.1.5Zm63.931-21.792-.1-.5,36.312-12.378.1.5Zm36.312-12.376-.1-.5,91.179-31.074,24.963-23.643.229.416-24.992,23.668-.117-.209.051.249Zm-52.211-31.535-.135-.483,59.341-28.537.134.485Zm168.484-23.267-.229-.416,59.338-56.189.227.416Zm-109.144-5.269-.134-.485,34.9-16.783.137.48Zm34.906-16.788-.137-.48,15.7-7.552.137.487Zm15.7-7.545-.137-.487,3.447-1.655.132.483Zm3.442-1.659-.132-.483,29.825-14.346.136.487Zm-614.586-10.377-.322-.293,4.734-8.905.32.293Zm4.731-8.905-.32-.293,3.436-6.468.322.289Zm724.287-5.646-.227-.416,63.924-60.537.231.416Zm-720.849-.826-.322-.289.7-1.309.322.293Zm.7-1.3-.322-.293,2.712-5.11.322.293Zm-258.85-.827-39.047-44.6v0l-.121-.136.13-.2-.13.2-3.453-3.949h0l-1.161-1.327.128-.192-.128.192-3.045-3.475h0l-4.145-4.734.256-.39.035.038-.112.176.114-.172,6.73,7.686-.128.2.13-.2.423.487h0l4.738,5.408-.13.194.13-.194,4.866,5.557h0l34.181,39.043Zm261.563-4.284-.322-.293.926-1.741.322.291Zm.926-1.743-.322-.291,2.126-4,.322.293Zm2.126-4-.322-.293,1.1-2.078.322.3Zm1.1-2.076-.322-.3,1.646-3.1.322.293Zm1.646-3.1-.322-.293,1.243-2.338.32.3Zm1.241-2.333-.32-.3,4.939-9.3.322.293Zm4.941-9.3-.322-.293,2.536-4.771.322.293Zm2.537-4.771-.322-.293,1.536-2.9.322.3Zm1.536-2.894-.322-.3.209-.392.322.293Zm.209-.394-.322-.293,1.571-2.955.161.148-.161-.15.458-.859.32.291-.414.787-.161-.15.161.152Zm2.027-3.819-.32-.291,1.177-2.219.322.293Zm1.179-2.217-.322-.293,1.287-2.417.322.293Zm1.287-2.417-.322-.293,1.291-2.435.132.121-.132-.121,1.624-3.054.322.293-2.693,5.064-.13-.117.13.117Zm2.916-5.49-.322-.293.712-1.34.319.3Zm.709-1.338-.319-.3,2.052-3.863.161.148-.161-.148.619-1.166.322.293-.322-.293.985-1.855.322.293-1.6,3.023h0Zm3.658-6.887-.322-.293.214-.4.322.3Zm.214-.4-.322-.3.712-1.34.161.148-.161-.148.873-1.642.32.3-.747,1.41-.2-.187.2.187Zm753.113-.117-.231-.416,39.62-37.518.227.416ZM963.883,945.7l-29.146-33.291.258-.386,29.146,33.291Zm342.4-2.195-.32-.3.04-.075.322.293Zm.042-.077-.322-.293,1.456-2.742.143.126-.143-.128.831-1.562.322.293-.734,1.38-.124-.112.124.112-1.144,2.153h0Zm2.287-4.306-.322-.293.487-.912.319.293Zm.485-.912-.319-.293,37.716-70.991.322.293Zm788.332-29.357-.227-.416,33.674-31.887.115.209-.088-.234,4.5-2.968.176.458-4.484,2.962Zm38.15-34.838-.176-.458,49.422-32.65.177.458ZM849.74,865.1,764.206,628.949l.355-.218,85.533,236.146ZM2185,841.368l-.177-.458,69.478-45.9.088.229-.074-.238,69.125-37.561.15.474-69.118,37.56ZM86.84,837.053l-29.9-12.746.121-.489,29.787,12.7.075-.09L189.485,709l.269.372L87.034,837l-.134-.185Zm-29.9-12.746-11.468-4.89.121-.485,11.468,4.885Zm-11.468-4.89L.046,800.056l.121-.489,45.427,19.366Zm1904.466-8.949-50.6-12.38.073-.509,50.6,12.383Zm-50.6-12.38-76.73-18.775.075-.5,76.728,18.771Zm921.086-5.245-105.386-38.6.106-.494,105.389,38.6Zm-496.836-34.926-.15-.474,71.536-38.871.075.236-.049-.247,38.313-13.132.1.494-38.3,13.127Zm391.45-3.676-204.29-74.826-23.121,7.927-.1-.5L2510.7,678.9l.048.247.055-.247,204.338,74.846ZM2001.156,735.16l-.068-.507,61.624-14.5.068.509Zm61.624-14.5-.068-.509,96.585-22.724,79.05-88.471.253.39-79.092,88.517-.125-.2.033.256Zm370.634-14.736-.1-.494,54.212-18.586.1.5Zm-2272.453-37-.289-.348,33.7-47.78.289.346Zm149.456-32.7-.051-.507,15.465-2.664.051.507Zm15.465-2.664-.051-.507,95.95-16.543.051.509ZM194.657,621.142l-.289-.346L281.5,497.244l.286.348Zm2043.943-11.8-.253-.39,8.456-9.462.256.39-7.823,8.753h0Zm8.458-9.463-.256-.39,80.231-89.791.254.39Zm80.229-89.791-.254-.39,6.01-6.728.128.194,0-.258,112.473,2.364,5.467-8.24.3.337-5.256,7.913,90.675,1.906-.007.513-203.585-4.282Zm124.126-12.72-.3-.337,35.726-53.82.3.337Zm-732.094-17.283-.04-.249-.06.245-68.226-28.123.115-.489,68.182,28.1,24.011-6.549.079.5Zm24.062-6.56-.079-.5,26.649-7.27.081.5Zm26.651-7.27-.081-.5,36.541-9.967.079.5Zm534.376-10.225-1.977-1.335-134.59-90.9.181-.456,136.564,92.23ZM1933.184,284.594l-.22-.423,31.027-27.984.22.421Zm31.028-27.987-.22-.421,78.147-70.482.223.423Z" transform="translate(0.055 0)" fill="none" stroke="#8ecdf4" stroke-miterlimit="10" stroke-width="0.5"/></g></g></svg>