<svg xmlns="http://www.w3.org/2000/svg" xmlns:xlink="http://www.w3.org/1999/xlink" width="645" height="355" viewBox="0 0 645 355"><defs><linearGradient id="a" x1="0.5" x2="0.5" y2="1" gradientUnits="objectBoundingBox"><stop offset="0" stop-color="#448abe"/><stop offset="1" stop-color="#284667"/></linearGradient><clipPath id="b"><rect width="645" height="355" fill="url(#a)"/></clipPath></defs><g clip-path="url(#b)"><g transform="translate(-1.757 -47.715)" opacity="0.156"><path d="M439.254,531.535v-.082l-.076,0,0-.148,1.421.057,3.038-.415-4.817.1,0-.148,3.567-.071-3.892-.15,0-.1-.086,0v-.148l7.928-.155-5.341-.2-2.719.344-.011-.147,1.343-.17-1.589.03v-.148l.331-.006-.483-.018,0-.148,3.121.116,2.594-.328-5.936.111v-.148l4.583-.086-4.8-.171-.12.015V529.3H437.3V529.3h-.009l0-.148.137.005,2.41-.283-2.877.051v-.148L536.841,527l0,.147-2.736.05,2.6.066,0,.148h-.044v.086l-3.793.069,3.628.1,0,.148h-.027v.053l-4.9.092,4.708.128,0,.149h-.008v.018l-6.069.116,5.375.15.58-.229.032.142-.2.08.066,0v.148h-.013v.022l-.449-.013-.736.291.969-.019,0,.147h-.037v.066l-1.33-.039-.8.317,1.926-.04,0,.148h-.062l0,.115-2.262-.067-.875.345,2.943-.062,0,.148-36.806.786,0-.148,8.739-.187-6.379-.211L440.6,531.507v0Zm5.662-.617-3.031.415,8.966-.186Zm2.524-.052,5.91.228,2.694-.4Zm9.761-.2-2.689.4,8.659-.179Zm2.591-.053,5.944.219,2.371-.387Zm9.356-.188-2.367.387,8.365-.173Zm-29.826.125,5.589.215,2.775-.38Zm9.636-.189-2.77.378,8.417-.17Zm22.846.01,5.97.212,2.068-.375Zm8.966-.181-2.064.374,8.083-.167Zm-29.2.12,5.622.207,2.463-.366Zm9.237-.181-2.458.366,8.133-.165Zm42.814.066,6.343.21,1.378-.371Zm8.331-.172-1.377.369,7.76-.167Zm-28.465.112,5.99.205,1.781-.362Zm8.59-.173-1.779.361,7.813-.161Zm-28.586.113,5.648.2,2.169-.354Zm8.854-.174-2.165.354,7.861-.159Zm-28.712.115,5.317.2,2.537-.347Zm9.12-.174-2.531.346,7.9-.156Zm62.009.121,6.35.2,1.119-.358Zm7.978-.165-1.118.358,7.5-.161Zm-27.882.107,6,.2,1.514-.35Zm8.231-.165-1.512.349,7.557-.156Zm-28,.107,5.668.195,1.893-.343Zm8.485-.165-1.889.342,7.6-.153Zm-28.116.109,5.342.19,2.251-.335Zm8.742-.167-2.247.334,7.635-.15Zm61.4.116,6.353.195.875-.346Zm-80.639-.174-2.589.327,7.663-.148Zm60.963.116,6.013.191,1.262-.338Zm7.884-.159-1.261.338,7.311-.151Zm-27.426.1,5.683.188,1.632-.332Zm8.131-.16-1.63.33,7.351-.148Zm-27.54.1,5.361.184,1.984-.325Zm8.379-.16-1.98.324,7.383-.146Zm-27.659.105,5.05.179,2.32-.316Zm8.63-.161-2.314.316,7.41-.142Zm60.383.111,6.016.186,1.026-.328Zm7.55-.152-1.024.327,7.073-.146Zm-26.872.1,5.692.181,1.386-.321Zm7.789-.152-1.385.32,7.112-.144Zm-26.983.1,5.377.178,1.732-.314Zm8.031-.153-1.729.313,7.144-.141Zm-27.1.1,5.071.173,2.06-.307Zm8.275-.155-2.056.305,7.168-.137Zm59.813.105,6.014.18.8-.318Zm-87.029-.005,4.774.17,2.372-.3Zm8.521-.155-2.366.3,7.184-.134Zm59.4.106,5.7.175,1.157-.31Zm7.46-.146-1.156.31,6.883-.139Zm-26.443.093,5.386.172,1.495-.3Zm7.694-.146-1.492.3,6.913-.136Zm-26.553.093,5.086.169,1.816-.3Zm7.932-.147-1.813.3,6.935-.133Zm-26.666.1,4.793.165,2.12-.289Zm8.169-.148-2.116.289,6.948-.129Zm58.853.1,5.694.17.94-.3Zm7.142-.14-.939.3,6.662-.135Zm-84.367-.014-2.4.282,6.954-.126Zm58.449.1,5.39.166,1.271-.294Zm7.369-.141-1.269.293,6.691-.131Zm-26.023.089,5.094.162,1.585-.286Zm7.6-.141-1.582.287,6.71-.129Zm-26.131.09L467.4,529l1.884-.279Zm7.83-.142-1.88.28,6.721-.125Zm58.319.1,5.688.165.736-.291Zm-84.563,0,4.526.154,2.168-.273Zm8.063-.143-2.162.273,6.726-.123Zm57.926.1,5.389.161,1.06-.284Zm7.055-.134-1.058.284,6.477-.127Zm-25.509.084,5.1.157,1.368-.278Zm7.278-.135-1.366.278,6.495-.125Zm-25.613.086,4.813.154,1.661-.272Zm7.5-.136-1.657.27,6.5-.122Zm-25.722.086,4.54.15,1.939-.265Zm7.729-.137-1.934.265,6.509-.12Zm57.412.092,5.386.157.862-.277Zm6.754-.128-.861.275,6.273-.123Zm-25.011.08,5.1.152,1.163-.268Zm6.968-.129-1.162.268,6.287-.12Zm-25.111.081,4.819.149,1.451-.263Zm7.186-.131-1.448.263,6.3-.118Zm-25.217.083,4.549.144,1.723-.256Zm7.408-.132-1.719.256,6.3-.115Zm38.843.04,5.093.148.971-.261Zm6.669-.124-.97.261,6.089-.117Zm-24.623.077,4.819.144,1.253-.255Zm6.882-.125-1.251.254,6.1-.114Zm-24.725.078,4.553.14,1.519-.248Zm7.1-.126-1.516.247,6.1-.11Zm38.538.036,5.084.143.789-.253Zm6.38-.118-.789.252,5.9-.113Zm-24.15.072,4.815.141,1.066-.248Zm6.586-.119-1.064.245,5.9-.111Zm-24.246.074,4.553.136,1.327-.24Zm6.794-.121-1.325.24,5.9-.107Zm20.65-.012,4.808.135.889-.239Zm6.3-.115-.888.238,5.719-.107Zm-23.781.07,4.549.131,1.146-.232Zm6.5-.115-1.144.233,5.717-.1Zm20.533-.014,4.8.131.723-.231Zm6.025-.109-.723.231,5.538-.1Zm-23.328.065,4.54.128.975-.225Zm6.219-.11-.973.225,5.536-.1Zm3.288-.059,4.531.124.814-.219Zm5.947-.105-.812.219,5.364-.1Zm3.344-.059,4.518.12.661-.212Zm5.683-.1-.661.211,5.2-.094Z" transform="translate(-159.054 -309.935)" fill="none" stroke="#8ecdf4" stroke-miterlimit="10" stroke-width="0.5"/><path d="M445.958,539.3l0-.148,9.487-.264-9.38-.479-.757.137-.013-.116-.095,0v-.067l-.064,0,0-.149.919.047,4.366-.791-5.932.153,0-.148,4.9-.126-5.367-.26,0-.148,7.355.356,3.952-.715-11.5.287,0-.147,10.371-.26-8.044-.37-2.624.429-.013-.146,1.566-.257-1.872.046,0-.149.832-.02-1.022-.047,0-.149,3.126.144,3.754-.614-7.273.17v-.149l6.134-.143-6.646-.291v-.041h-.033v-.071l-.05.008-.013-.147,3.034-.451-3.484.076,0-.148,2.339-.052-2.609-.11,0-.148,4.922.206,3.231-.481-8.367.179,0-.148,7.124-.152-6.23-.249-1.223.167-.012-.147,1.227-.168.006.074,0-.075,8.638.347,4.1-.61.006.073v-.074l8.749.336,3.63-.593.006.073,0-.074,8.849.328,3.181-.576.008.073,0-.074,8.939.318,2.756-.56.009.073v-.074l9.022.309,2.354-.544.019.146-1.806.417,8.788.3,2.1-.564.011.073,0-.075,9.421.311,1.712-.547.013.072v-.075l9.485.3,1.344-.53.016.071v-.074l3.258.1,0,.148-3.249-.1-.954.377,4.025-.088,0,.148-1.685.037,1.56.05,0,.148L532,532.3l-1.042.412,5.178-.118,0,.149-2.927.065,2.765.091,0,.148-5.414-.178-1.138.449,6.41-.15,0,.149-4.248.1,4.044.138,0,.148-6.6-.226-1.245.492,7.729-.187,0,.148-5.657.137,5.4.192,0,.148-7.876-.28-1.363.539,9.144-.228,0,.148-7.163.179,6.855.253,0,.148-.064,0,0,.125-8.775.226,8.4.324,0,.148h-.027v.056l-10.509.282,9.732.39.445-.23.041.137-.162.084h.02l0,.149h-.015v.022l-.312-.013-1.461.757,1.32-.039,0,.148-16.435.475v-.074l0,.074-12.284-.539Zm2-.943,9.356.478,4.132-.84Zm14.337-.384-4.128.84,13.619-.38Zm1.966-.053,9.465.46,3.483-.806Zm13.683-.366-3.48.805L487.533,538Zm-26.565-.109-4.36.789,13.3-.356Zm55.451.162,10.211.448,1.993-.787Zm12.623-.35-1.991.787,12.293-.356Zm-39.479.242,9.555.44,2.882-.773Zm13.062-.349-2.879.772,12.539-.348Zm-39.665.242,8.917.432,3.737-.759Zm13.5-.348-3.733.758,12.768-.342Zm54.7.153,10.266.43,1.462-.757Zm-26.444-.1,9.628.424,2.324-.744Zm12.472-.334-2.323.742,12.043-.335Zm-38.673.231,9.008.415,3.154-.73Zm12.894-.333-3.151.728,12.263-.328Zm-25.539-.1-3.947.714,12.47-.322Zm53.469.144,9.688.406,1.807-.714Zm11.913-.318-1.806.712,11.573-.321Zm-37.722.219,9.084.4,2.613-.7Zm12.319-.317-2.61.7,11.786-.316Zm-37.9.22,8.5.39,3.387-.688Zm12.725-.319-3.384.688,11.985-.311Zm27.352.041,9.145.384,2.11-.675Zm11.772-.3-2.108.673,11.334-.3Zm-36.976.209,8.573.375,2.863-.661Zm12.164-.3-2.859.662,11.526-.3Zm-37.146.21,8.019.369,3.586-.649Zm12.557-.3-3.582.648,11.7-.293Zm51.643.13,9.193.369,1.641-.649Zm11.252-.291-1.641.649,10.9-.293Zm-36.094.2,8.636.363,2.374-.637Zm11.63-.289-2.372.636,11.09-.287Zm-36.257.2,8.1.356,3.078-.625ZM475,535.4l-3.074.624,11.261-.28Zm-24.035-.09-3.748.612,11.417-.275Zm50.555.123,8.687.349,1.919-.614Zm11.122-.277-1.918.613,10.675-.276Zm-35.4.19,8.158.342,2.6-.6Zm11.487-.277-2.6.6,10.841-.27Zm-35.561.19,7.645.335,3.261-.59Zm11.852-.278-3.256.59,10.992-.266Zm49.953.117,8.725.335,1.5-.591Zm10.637-.265-1.495.591,10.282-.267Zm-34.58.179,8.21.33,2.161-.58Zm10.989-.265-2.159.579,10.442-.26Zm-34.733.181,7.709.323,2.8-.568Zm11.343-.265-2.8.569,10.587-.256Zm-34.888.182,7.221.317,3.415-.558Zm11.7-.265-3.41.557,10.722-.251Zm48.943.109,8.251.318,1.749-.56Zm10.514-.253-1.748.559,10.062-.252Zm-33.935.172,7.761.311,2.372-.548Zm10.855-.254-2.369.548,10.2-.245Zm-34.086.173,7.285.306,2.97-.538Zm11.2-.253-2.966.537,10.331-.242Zm-22.7-.081-3.539.526,10.45-.237Zm71.086.184,8.28.307,1.364-.539Zm-23.108-.079,7.8.3,1.971-.529Zm10.39-.243-1.969.529,9.836-.238Zm-33.312.165,7.338.3,2.553-.519Zm10.721-.242-2.55.518,9.96-.233Zm-33.46.164,6.887.289,3.112-.509ZM459.6,533.9l-3.108.508,10.074-.229Zm47.449.1,7.835.29,1.6-.511Zm9.944-.232-1.594.509,9.487-.229Zm-32.567.156,7.381.284,2.164-.5Zm10.265-.233-2.161.5,9.606-.224Zm-32.709.157,6.939.279,2.709-.491Zm10.587-.232-2.7.491,9.715-.221Zm-21.945-.074-3.225.48,9.812-.216Zm68.878.167,7.859.279,1.245-.492Zm-22.329-.074,7.414.274,1.8-.483Zm9.828-.223-1.8.483,9.269-.216Zm-31.984.15,6.982.269,2.331-.473Zm10.139-.223-2.327.473,9.372-.212Zm-32.124.151,6.562.263,2.84-.464Zm10.451-.223-2.835.463,9.466-.208Zm46.058.088,7.439.265,1.458-.466Zm9.41-.212-1.457.466,8.947-.209Zm-31.285.142,7.016.26,1.977-.457Zm9.711-.213-1.974.456,9.047-.2Zm-31.419.143,6.6.254,2.474-.447Zm10.013-.214-2.47.448,9.138-.2Zm-21.24-.07-2.944.439,9.218-.2Zm66.819.153,7.456.255,1.139-.45Zm-21.6-.07,7.042.251,1.645-.442Zm9.3-.2-1.644.442,8.736-.2Zm-30.739.137,6.639.245,2.13-.433Zm9.593-.205-2.128.433,8.823-.195Zm-20.985-.067-2.589.422,8.9-.19Zm44.76.078,7.061.242,1.334-.427Zm8.907-.2-1.333.426,8.44-.191Zm-30.081.129,6.665.237,1.808-.419Zm9.188-.2-1.8.418,8.52-.188Zm-20.735-.066-2.257.409,8.594-.184Zm44.313.073,7.073.233,1.043-.412Zm-12.116-.252-1.5.4,8.234-.182Zm-20.491-.064-1.946.394,8.3-.176ZM522.5,532l-1.22.39,7.96-.175Z" transform="translate(-160.431 -311.617)" fill="none" stroke="#8ecdf4" stroke-miterlimit="10" stroke-width="0.5"/><path d="M31.616,478.07l0-.074-.008.073-31.568-6.5.017-.146,31.493,6.481L25.057,417.8.089,454.352l-.085-.1,25.05-36.671.042.05-.025-.066.031-.021-.009-.007,21-47.8L16.509,414l-.085-.1,29.942-44.8-6.6-34.873L13.209,412.573l-.1-.06,26.473-78.094L3.494,388l3.1,21.7-.111.027-3.09-21.65L.069,389.9l-.043-.137,1.465-.8-1.425.663-.038-.14,3.317-1.543L0,381.484l.093-.083,3.343,6.457,28.112-44.6L.08,373.967l-.067-.119,31.842-31.074,7.887-8.821.037.055.04-.052,16.374,21.33-.079.1L39.883,334.248l6.6,34.845,8.25,11.583,26.521-61.032.049.037.052-.029,12.761,39.219-.1.058L81.57,320.7l8.082,38.95-.055.02.056-.011,7.991,72.994L121.7,354.1l.052.027-.034-.059,30.987-30.477.034.059.031-.062,27.659,23.249,27.707-40.216.042.049.053-.025,21.054,74.709-.106.052-20.162-71.547,11.66,47.731-.053.023.055-.015,12.857,88.846,11.728-20.721.045.044.009-.073,15.214,3.125-.009.073h0l.037-.056,9.3,10.508-.037.056.046-.043L285.2,467.822l14.023-3.763-7.624.275,0-.149,6.808-.245-7.588-.5.006-.148,9.041.591L305.4,462.4l-15.04.516,0-.148,14.129-.484-12.368-.755-2.465.569-.02-.146,1.729-.4-2.134.069,0-.148,1.31-.042-1.562-.1.005-.147,3.133.191,5.337-1.234-9.259.29,0-.149,8.337-.261-9.157-.525,0-.148,10.82.621,4.771-1.1-15.73.473,0-.148,14.713-.443-10.474-.566-4.449.9-.018-.146,3.609-.732-4.262.123,0-.148,3.332-.1-3.723-.2,0-.149,5.5.3,5.423-1.1.009.073,0-.074,11.821.6,4.58-1.06.01.073,0-.074,11.993.581,3.8-1.018.011.072,0-.074,12.145.56,3.068-.981.027.144-2.571.823,14.843-.43v.074l0-.074,12.869.566,1.908-.988.021.068v-.074L373,455.8l0,.148-1.564-.065-1.613.834,2.734-.082,0,.148-1.048.032.932.041,0,.147-2.922-.128-1.786.924,4.278-.134,0,.148-2.682.084,2.5.115,0,.149-4.4-.2-1.984,1.027,5.97-.2,0,.148-4.465.147,4.2.2,0,.148-6.013-.291-2.21,1.144,7.834-.268,0,.148-6.418.219,6.059.309,0,.148-7.782-.4-2.473,1.28,9.9-.355,0,.147-8.571.308,8.1.437-.005.148-9.731-.526-2.779,1.439,12.193-.461,0,.149-10.957.413,10.344.595-.005.147-11.888-.682-3.139,1.624,14.761-.587,0,.148-13.617.542,12.835.785-.005.148-14.29-.874-3.566,1.846,17.656-.743,0,.148-118.4,4.981,0-.074-.044.047-15.451-24.758-28.721,18.063-.025-.067.011.073-30.386,7.6-.011-.073,0,.074-32.206,1.281,0-.074-.026.066-33.54-22.477L71.048,476.494l-.026-.066,0,.074Zm32.166-85.318L31.707,477.919l39.251-1.563ZM25.158,417.675l6.487,60.074,32.047-85.092ZM63.89,392.681l7.173,83.562,26.479-43.3Zm33.728,40.375L71.232,476.2,108.5,451.078Zm65.767-51.094L142.228,473.52l32.063-1.276ZM108.66,451.069l33.42,22.4L132.292,384.5Zm23.726-66.755,9.785,88.943,21.153-91.545Zm61.3-47.8-19.259,135.7,30.254-7.57Zm-30.225,45.136,10.9,90.225L193.607,336.27Zm97.071,47.424-11.467,42.271,27.18-1.144Zm-26.939,17.569,15.372,24.632,11.458-42.24Zm27.2-17.21,15.572,40.755,8.7-2.335Zm24.382,38.542L277,470.173l23.849-1Zm1.275-.052,15.644,1.189,6.476-2.069Zm22.662-.9-6.471,2.068,22.453-.944Zm1.341-.054,15.953,1.121,4.943-1.954Zm21.33-.849-4.94,1.953,21.173-.891Zm-38.825-.233-7.133,1.914,21.935-.873Zm40.226.177,16.2,1.059,3.567-1.846Zm-38.858-.23,14.776,1.04,5.666-1.811Zm20.98-.791-5.662,1.809,20.722-.826ZM261,429.52l23.288,36.86-14.5-26.932Zm55.746,35.472,15.031.983,4.338-1.714Zm19.8-.747-4.336,1.713,19.6-.78Zm-36.672-.208-6.263,1.68,20.26-.764Zm38.165.15,15.235.931,3.141-1.624Zm-36.7-.2,13.97.914,4.989-1.594Zm19.494-.7-4.985,1.594,19.2-.724ZM220.624,358,204.82,464.58l28.621-18Zm-26.855-21.845,10.989,128.063,15.8-106.575Zm128.576,127.07,14.182.867,3.831-1.514Zm18.441-.661-3.829,1.513,18.214-.687Zm-34.745-.186-5.532,1.484,18.781-.674Zm36.327.129,14.352.823,2.78-1.437Zm-34.777-.182,13.221.808,4.418-1.413Zm18.172-.623-4.416,1.412,17.843-.641Zm1.613-.055,13.4.768,3.4-1.343Zm17.224-.589-3.4,1.343,16.971-.611Zm-50.91.417,12.342.754,4.917-1.319Zm17.9-.586-4.912,1.319,17.462-.6Zm34.683.111,13.538.733,2.473-1.281Zm-33.043-.163,12.522.717,3.932-1.257Zm16.985-.556-3.93,1.256,16.63-.569Zm-32.02-.159-5.331,1.233,17.076-.56Zm33.723.1,12.669.684,3.034-1.2Zm16.127-.529-3.032,1.2,15.853-.544Zm-48.182.373,11.718.672,4.386-1.176Zm16.74-.525-4.383,1.175,16.281-.532Zm33.2.094,12.786.653,2.211-1.144Zm-31.472-.149,11.868.642,3.516-1.123Zm15.911-.5-3.513,1.123,15.537-.509Zm-30.541-.144-4.766,1.1,15.924-.5Zm32.334.087,11.992.612,2.716-1.074Zm15.132-.473-2.716,1.073,14.839-.487Zm-45.707.333,11.13.6,3.929-1.054Zm15.692-.472-3.926,1.053,15.212-.477Zm31.865.08,12.09.585,1.984-1.026Zm-30.043-.134,11.256.574,3.155-1.007Zm14.936-.449-3.153,1.007,14.545-.455Zm-44.664.315,10.447.565,4.283-.99Zm15.471-.447-4.278.99,14.881-.448Zm31.075.076,11.36.55,2.442-.966Zm14.224-.427-2.441.964,13.917-.436Zm-43.45.3,10.576.541,3.532-.948Zm14.738-.425-3.529.947,14.241-.428Zm-28.415-.125-4.576.93,14.545-.42Zm59.066.193,11.441.527,1.786-.925Zm-28.739-.125,10.681.518,2.841-.908Zm14.045-.4-2.839.908,13.638-.41Zm-27.959-.121-3.853.892,13.932-.4Zm29.93.064,10.767.5,2.2-.871Zm13.391-.386-2.2.87,13.072-.393Zm-27.517-.116-3.183.854,13.354-.386ZM97.693,432.94l10.879,18.022,23.547-66.327Zm147.642-7.095-11.644,20.571,26.649-17.489ZM63.9,392.492,97.54,432.742l-7.983-72.919Zm57.858-38.179L97.784,432.6l34.469-48.365ZM46.44,369.253,25.268,417.439,63.72,392.473,54.7,380.852l.04-.052-.041.051Zm8.4,11.569,8.977,11.568,25.5-32.47ZM31.931,342.884,5.679,384.532l33.529-49.787Zm120.793-19.005L132.41,384.163l30.922-2.6Zm-30.9,30.271,10.5,29.915L152.6,323.879Zm31-30.338,10.6,57.635,16.936-34.492Zm27.653,23.175L163.872,380.81l29.535-44.465Zm-99.2-27.113-26.4,60.762,34.653-21.007Zm112.5,16.118,26.744,21.452-12.363-50.6ZM207.75,307.4l-26.994,39.182,12.9-10.622Z" transform="translate(0 -229.717)" fill="none" stroke="#8ecdf4" stroke-miterlimit="10" stroke-width="0.5"/><path d="M.069,485.973l0-.149,39.917-2.175L27.8,480.192.073,484.319l-.013-.147,26.23-3.9L.069,481.6l0-.149,27.293-1.385L16.577,477,.073,479.26l-.012-.148,14.853-2.03-14.845.705,0-.148,16.063-.763-9.6-2.727-6.454.815-.011-.147,4.651-.588-4.643.207,0-.148,6.009-.269L.055,472.313l.024-.144L6.533,474l33.251-4.2L.068,471.47l0-.147L40.972,469.6l-9.339-2.035L.072,471.275l-.011-.147,31.568-3.708.005.073.01-.073,9.9,2.156,29.489-3.726.005.074.008-.073,11.343,2,26.178-27.313.035.058.048-.038,11.781,25.693,21.731-3.234.006.073.006-.073,13.646,1.749,18.547-3.031.007.074.005-.074,14.529,1.638,15.829-9.235.023.067.021-.069,15.111,7.916,13.583-25.979.094.085-13.546,25.907L249,460.849l0,.074,0-.074,17.223,1.564,10.113-2.713.011.072,0-.074,17.763,1.47,7.986-2.552.013.071,0-.074L320.335,460l6.085-2.4.017.07,0-.074,18.576,1.306,4.383-2.268.021.068,0-.074,16.989,1.111-.006.148-16.977-1.11-4.078,2.11,20.942-.934,0,.149-19.981.891,40.293,2.833,2.029-45.961.057,0-.052-.029,22.075-69.646.052.029-.038-.055,21.7-24.849,20.577-38.5.046.043.022-.069,23.492,13.129-.022.068.034-.059,25.352,24.5-5.745-16.291.1-.062,5.8,16.46,19.287-23.352.076.108-19.344,23.422-.038-.055.031.062-20.757,17.717-.031-.063v.074l-22.3.158-23.654,58.022-25.692,70.265-.051-.032,0,.074-125.1,7.364-.005-.147,34.074-2.006-22.814-2.295Zm28.185-5.805,12.172,3.456L76.6,477.713Zm49.665-2.52-36.129,5.9,50.576-2.758Zm.557-.029,14.439,3.144,29.748-5.387Zm45.329-2.3L94.091,480.7l45.989-2.508ZM17.032,476.982l10.776,3.06L63.046,474.8Zm47.479-2.255-35.19,5.239,48.043-2.44Zm59.949.557,16.263,2.872L165,473.226Zm41.516-2.107L141.727,478.1l41.993-2.29ZM65.076,474.7l12.846,2.8,29.4-4.8Zm43.529-2.067-29.364,4.8,43.91-2.229Zm-101.62,1.5,9.6,2.726,34.255-4.683ZM52.451,472.1l-34.2,4.675,45.7-2.17Zm114.27,1.037,17.73,2.634,19.584-4.528Zm38.144-1.936L185.3,475.726l38.49-2.1Zm-95.595,1.4,14.536,2.568,24.382-4.416Zm40.033-1.9-24.355,4.411,40.281-2.045Zm-96.282,1.374,11.493,2.5,28.933-4.306Zm41.853-1.867-28.894,4.3,41.961-1.993Zm-53.33-.482-33.2,4.194,43.537-1.942Zm164.149,1.434,18.906,2.423,15.55-4.172Zm35.147-1.784-15.538,4.17,35.4-1.931Zm-90.78,1.288,15.913,2.363,20.048-4.072Zm36.921-1.753-20.027,4.067,37.079-1.882Zm-91.433,1.267,13.058,2.306,24.323-3.974Zm38.633-1.724-24.291,3.969,38.654-1.836ZM296.741,469.8l22.778,2.292,7.631-3.949Zm30.751-1.675-7.628,3.947,31-1.824ZM42.119,469.7l10.334,2.251,28.384-3.88Zm40.288-1.7-28.341,3.875L94.2,470.089Zm159.337,1.324,19.843,2.236,12.066-3.856Zm32.473-1.647-12.059,3.853,32.668-1.781Zm-86.393,1.188,17.036,2.183,16.289-3.766Zm34.141-1.621-16.275,3.763,34.238-1.738Zm-87.015,1.17,14.351,2.132,20.31-3.679Zm35.753-1.6L150.417,470.5l35.717-1.7Zm157.8,1.243,23.339,2.119,4.88-3.658Zm28.462-1.55-4.879,3.656,28.668-1.688ZM83.089,467.978l11.785,2.08,24.137-3.592Zm37.315-1.57L96.3,470l37.11-1.656Zm154.79,1.224,20.584,2.07,9.045-3.574Zm30.076-1.526-9.041,3.573,30.233-1.649ZM71.04,466l-27.732,3.5,38.42-1.616ZM222.89,467.2l17.944,2.023,13.018-3.493Zm31.644-1.5-13.009,3.49,31.708-1.61Zm-82.972,1.083,15.415,1.975,16.808-3.413Zm33.166-1.479-16.79,3.41,33.1-1.572Zm153.3,1.151,23.747,1.965,2.5-3.4Zm26.409-1.437-2.5,3.4,26.582-1.565Zm-263.258,1.354,13,1.93,20.418-3.336Zm34.64-1.456-20.391,3.332,34.41-1.536Zm150.488,1.135,21.162,1.921,6.419-3.322Zm27.92-1.417-6.417,3.322,28.057-1.531ZM108.59,440.71,82.577,467.851l37.729-1.588Zm146.942,24.945,18.677,1.878,10.163-3.249Zm29.4-1.4-10.156,3.247,29.443-1.5Zm-79.26,1.006L221.96,467.1l13.737-3.176Zm30.831-1.375-13.725,3.172,30.753-1.46Zm148.086.994,24.981,1.9.446-24.8Zm-227.89,0,14,1.8,17.149-3.106Zm32.226-1.355-17.13,3.1,31.99-1.427Zm221.206-21.665-.443,24.657L435,397.285Zm-74.794,22.717,21.6,1.788,4.129-3.095Zm25.974-1.317-4.127,3.094,26.1-1.423Zm-219.137-.094L121.8,466.2l33.155-1.4ZM286,464.208l19.261,1.749,7.662-3.028Zm27.365-1.3-7.657,3.026,27.408-1.391Zm-75.841.935,17.007,1.71,11.039-2.962Zm28.719-1.282-11.031,2.96,28.642-1.36Zm-76.36.923,14.844,1.673,14.267-2.9Zm30.038-1.264-14.251,2.9,29.809-1.33Zm142.548.981,21.93,1.668,2.126-2.889Zm-188.087-1.315-17.328,2.831,30.912-1.3Zm140.116.967,19.72,1.632,5.466-2.829Zm25.522-1.211-5.463,2.827,25.573-1.3Zm46.68.313-1.848,2.512L406,445.412Zm-119.365.557,17.588,1.6,8.662-2.769Zm26.8-1.2-8.656,2.767,26.739-1.27Zm-73.176.859,15.538,1.564,11.72-2.711ZM249.008,461,237.3,463.7l27.841-1.242Zm-44.243-6.71-15.557,9.076,30.437-1.28Zm136.443,7.3,20.075,1.526,3.532-2.648Zm23.848-1.131-3.532,2.647,23.912-1.214Zm-69.763.812,18.056,1.495,6.562-2.593Zm25.056-1.117-6.558,2.591,25.016-1.188Zm-43.988-.3-9.455,2.536,26.059-1.163ZM410.374,355.741,386.757,461.728,410.016,441.8Zm-88.8,104.351,18.427,1.4,4.7-2.433Zm23.463-1.046-4.7,2.432,23.449-1.114Zm43.715-43.164-2,45.37,23.428-105.145Zm-86.621,42.88-7.452,2.382,24.438-1.091Zm24.316-1.023-5.669,2.241,22.96-1.025ZM433.695,341.588l-23.469,99.848,25.032-44.865ZM410.489,355.26l-.358,86.075,23.517-100.048Zm.207-8.621-21,66.243,20.678-57.688Zm23.1-5.421,1.566,55.1,23.524-57.7Zm-1.371-19.671L410.642,355l23.037-13.9Zm-21.6,24.706L410.5,355l21.43-32.914Zm21.711-24.793,1.254,19.581,21.948-12.125ZM455.886,329l-21.8,12.045,24.82-2.575Zm.128.016,3.009,9.445,21.9-.155Zm0-.154,25.233,9.412-4.741-42.107Zm20.606-32.705,4.739,42.1,20.615-17.6Zm-44.055,25.165,23.288,7.484-2.845-45.733Zm20.551-38.343,2.845,45.735,20.492-32.694Zm41.256,20.386-.091-.087,14.185-25.509.046.043.052-.03,7.1,21.01-.1.06-6.942-20.528,2.3,21.782-.111.021-2.323-21.957-5.259,24.065-.109-.041,5.244-24Z" transform="translate(-0.02 -219.214)" fill="none" stroke="#8ecdf4" stroke-miterlimit="10" stroke-width="0.5"/><path d="M.068,489.744.06,489.6l58.7-5.078-20.407-8.323L.074,485.044l-.02-.146,37.326-8.629L.067,479.158l-.007-.149,37.978-2.94L21,469.118.072,473.367l-.017-.146L19.879,469.2.067,470.583l-.006-.147,20.622-1.446L6.247,463.1.071,464.221l-.015-.146,4.923-.892L.067,463.5l-.006-.148,5.869-.377-5.883-2.4.034-.142,6.176,2.519L53.491,454.4.067,457.542l-.006-.148L54.272,454.2,40.418,450.27.071,456.863l-.013-.147,40.357-6.594.006.073.012-.073,14.278,4.054L92.9,447.259l.008.074.01-.073,16.869,3.674,30.922-6.28.008.073.008-.073L159.665,448l24.775-5.728.01.072.006-.073,20.582,3.057,19.549-5.244.011.072.006-.074,21.889,2.805,15.083-4.82.013.072.005-.074,22.923,2.583,11.248-4.444.032.142-10.976,4.338,25.165,2.835,9.518-4.925.021.069,0-.074,26.246,2.639,6.049-4.533.029.064,0-.074,26.828,2.436,3.074-4.177.041.052,0-.073,27.232,2.253.528-3.83.055.012-.015-.071,27.5-9.871-1.845-60.322.057,0,.034-.059,27.613,26.72-4.033-84.719.057,0,.045-.046,27.756,47.3-5.525-47.4.056-.011.017-.07,27.523,11.9-6.837-29.521.054-.021-.032-.061,26.85-24.875-7.465,1.588-.008-.074-.047-.042,26.442-49.751.046.043-.017-.071,19.034-7.867.034.141-18.7,7.729,9.73.2v.074l.055-.015,13.2,80.482,18.2-108.9.055.016.042-.05,36.273,51.273-.041.05-.036.058-20.511-21.617-20.447,55.23-21.857,95.256-.054-.021.052.029L541.5,430.35l-.1-.058,21.365-64.367,21.507-93.734-28.473,92.056-.1-.056,28.755-92.969-13.2,23.817L554.685,363.97l-.107-.045,16.542-68.874-32.711-14.727,9.857,82.041-.111.023-9.843-81.916-21.363,62.411,13.14,14.994-.074.113-12.589-14.367,8.683,13.287-.043.047h0l.056-.013,10.85,75.541-.112.028L526.044,357.2l-25.1,72.772,25.913,7.3-.023.145L501,430.142l8.765,15.394-.045.045,0,.074Zm38.6-13.575,20.4,8.321,51.869-13.915Zm73.056-5.654L59.888,484.421l77.268-6.685Zm.416-.034,25.425,7.219L175.5,465.574Zm63.986-4.953-37.915,12.117,66.959-5.793Zm-154.8,3.565,17.038,6.949L88.892,464.36Zm68.5-4.8L39.323,475.97l71.982-5.573Zm86.807,1.191,29.028,6.322,26.968-10.657Zm56.479-4.371-26.956,10.652,58.576-5.066ZM90.243,464.265l21.478,6.1,38.353-10.29Zm60.588-4.245L112.5,470.3l63.109-4.887ZM6.574,463.081,21,468.967l48.945-9.941Zm64.445-4.122-48.9,9.931L89.4,464.176Zm162.666,2.111,31.6,5.58,18.24-9.438Zm50.194-3.884-18.234,9.436,51.665-4.47Zm-132.531,2.8,24.769,5.394,28.57-9.131Zm53.944-3.778-28.552,9.125,55.772-4.318ZM71.452,458.929l18.368,5.215,38.22-8.836Zm57.482-3.677-38.188,8.829,59.565-4.174Zm-74.227-.926L7.523,462.872l63.066-4.035Zm229.824,2.806,33.4,4.961,11.231-8.417Zm44.882-3.473-11.227,8.415,45.9-3.971Zm-123.518,2.5,27.2,4.8,20.641-8.157Zm48.312-3.383-20.629,8.152,49.637-3.843Zm-124.742,2.439,21.365,4.652,29.463-7.9Zm51.563-3.3-29.441,7.9,53.1-3.719ZM55.146,454.3l15.876,4.507,37.734-7.664Zm54.643-3.217-37.7,7.657,56.311-3.6ZM330.123,453.6l34.633,4.439,5.558-7.55Zm40.354-3.12-5.557,7.549,41.039-3.55Zm-115.6,2.246,28.983,4.3,14.161-7.328Zm43.5-3.045-14.156,7.324,44.455-3.442Zm-116.734,2.195,23.643,4.175,22.254-7.112Zm46.49-2.973-22.241,7.107,47.628-3.337Zm-117.8,2.145,18.6,4.051,29.866-6.9Zm49.337-2.9-29.841,6.9,50.579-3.235Zm211.57,2.272,35.423,3.993.939-6.808Zm36.477-2.815-.938,6.807,36.891-3.192Zm-314.8-.2-36.983,6.7,53.323-3.139Zm206.208,2.221,30.269,3.88,8.831-6.619Zm39.347-2.754-8.83,6.616,40.037-3.1ZM228.829,448.86l25.366,3.768,16.279-6.433Zm42.108-2.693-16.27,6.429,42.952-3.009ZM160.3,448.109l20.725,3.66,23.3-6.252Zm44.745-2.633-23.285,6.247L227.43,448.8Zm236.611-.49,2.837,6.163,33.307-2.882ZM408.5,447.535l35.854,3.606-2.837-6.163ZM140.722,444.8l-29.9,6.072,48.21-2.839Zm198.545,2.015,31.167,3.513,4.421-6.007Zm35.75-2.5-4.42,6.006,36.235-2.805Zm-103.311,1.8,26.656,3.417,11.294-5.845Zm38.3-2.448-11.29,5.841,38.928-2.727Zm-104.246,1.765,22.369,3.322,17.795-5.688Zm40.744-2.4-17.783,5.683,41.441-2.651Zm226.222-.443,5.928,5.6,30.188-2.611Zm-30.292,2.314,36.009,3.27-5.926-5.6Zm-257.98-2.49-23.919,5.529,43.791-2.578Zm191.413,1.835,31.755,3.193.754-5.471Zm32.624-2.277-.754,5.471,32.933-2.55Zm-97.653,1.638,27.6,3.111,7.115-5.334Zm34.965-2.236-7.113,5.332,35.436-2.482Zm-98.51,1.61,23.635,3.029,13.146-5.195Zm37.237-2.191-13.139,5.191,37.765-2.415Zm188.294,1.656L509.6,445.5l-8.758-15.382ZM224.6,440.229l-18.845,5.056,39.947-2.352Zm214.677-.4,2.3,5L471.6,442.5Zm-29.914,2.08,32.08,2.913-2.3-5Zm-62.673-.586,28.281,2.844,3.6-4.883Zm32.038-2.046-3.594,4.884,32.385-2.27Zm-59.194-.536-9.2,4.76,34.553-2.21Zm-57.941-.524-14.519,4.64,36.583-2.153Zm206.055-.412,4.891,4.621,27.585-12.148Zm-27.5,1.949,32.194,2.664-4.849-4.581Zm-60.48-.54,28.73,2.609.619-4.487Zm29.464-1.878-.619,4.486,29.694-2.081Zm-57.264-.5-5.844,4.381,31.726-2.031Zm85.364-13.251,1.992,16.083,28-1.962ZM409.349,437.2l29.758,2.463-1.993-16.091Zm-27.527-2.13-2.975,4.043,29.225-1.871Zm111.3-56.567-25.509,59.153,33.179-7.689Zm-55.862,44.937,30.178,14.207-4.459-47.584Zm25.822-33.483,4.458,47.568,25.49-59.11Zm-53.416,43.459-.513,3.721,26.82-13.165Zm83.546-55.083,7.668,51.452,25.067-72.669Zm-57.842-15.092L437.21,423.3l25.726-33.388ZM486.849,352.7l-23.664,37.06,29.893-11.521Zm-27.8-47.44,4.02,84.45,23.73-37.162Zm27.894,47.343,6.23,25.537,23.546-35.113Zm29.935-9.59-23.5,35.043,32.595-21.125Zm-7.957-26.061-21.9,35.474,29.783-9.578Zm-27.539-11.979,5.526,47.4,21.934-35.53Zm27.623,11.852,7.878,25.884,21.286-62.187Zm-6.869-29.647,6.815,29.425,20.023-54.289Zm26.993-24.941-20,54.236,29.14-36.274Zm9.284,17.928,32.7,14.723-13.193-80.447Zm51.059-94.217-18.145,108.58,33.758-79.159Zm14.776,31.687L571.7,293.953l12.919-23.3ZM529.191,262.1l9.134,17.958,19.422-65.429Zm18.24-47.184-25.893,48.718,7.545-1.605Zm.461-.857-18.458,47.4,28.389-47.193Zm57.3,1.263,19.958,21.034-35.2-49.755Zm59.98,48.4-.081-.1,14.176-19.174L664.6,263.331l-.079-.106,17.972-23.152h0l.08.1Z" transform="translate(-0.017 -185.71)" fill="none" stroke="#8ecdf4" stroke-miterlimit="10" stroke-width="0.5"/><path d="M15.509,593.35l-.014-.147,55.265-9.01L33.239,557.036.074,570.141.042,570l32.624-12.89-32.6,4.353-.012-.148,33.007-4.406L5.541,536.99l-5.47,1.748-.027-.144,4.776-1.525-4.758.538-.01-.148,5.306-.6L.031,533l.054-.129,5.472,3.96,77.972-24.92L.062,520.093l-.008-.148,83.855-8.219L59.054,501.591.069,517.415l-.022-.144,59-15.829.011.073.017-.071,25.137,10.252,53.331-17.045.013.073.012-.073,30.934,8.784,37.133-14.673.016.071.01-.072,34.938,7.608L265.263,483.6l.021.069.007-.072,37.676,6.653,14.943-11.2.028.064.006-.074,39.5,5.868,7.285-9.9.041.051.006-.074,40.657,5.211,1.21-8.778.056.013.005-.073L448,476.02l-3.595-7.809.049-.038,0-.074,41.549,4.179-7.412-7,.034-.06,0-.074,41.52,3.77-10.467-6.319.047-.134,10.72,6.469L551,442.6l26.028-79.957-34.541,84.18-.1-.07,34.906-85.072L562.85,382.946l-.085-.1,14.761-21.735.042.049.053-.025,16.328,60.972-.106.05-16.28-60.792-26.432,81.2,24.31-3.034.011.148-24.307,3.032,7.222,13.067-.092.086-7.248-13.114-30.4,26.2,9.3.845-.008.148-9.158-.832,4.046,2.443-.047.134-4.313-2.6-33.495,3.282,27.356,2.752-.009.149-27.9-2.806,22.168,20.94,42.513-30.819.027.064-.017-.069,23.117-9.44,40.8-51.094.04.054h0l-.024-.067,1.322-.79-.046-.041,32.037-61.525-25.052,10.8-17.9,60.858-.106-.053,17.913-60.891.053.026-.018-.07,25.218-10.866,24.911-45.241.046.043.041-.051,35.66,48.052,23.029-46.806.047.039-.027-.064,19.767-14.277-22.872,14.342-.048-.134,24.45-15.332L717.824,277.1l-9.478,17.953-.093-.084,9.5-17.988.047.043,0-.074,35.872,2.968,0,.073.006-.073,20,3.016-.006.073.018-.069,40.371,17.12-.034.141L773.66,283.083l-19.2-2.895,59.6,20.359-.029.144L753.9,280.148l47.484,52.078L814,312.059l.088.094-12.593,20.125,12.559,2.666-.019.146-12.423-2.637,12.467,12.032-.067.119L801.4,332.436l-17.728,34.276-.094-.082L801.3,332.364l-68.938-36.67,42.588,67.737-.087.095L732.185,295.64,709.2,342.36l10.394,4.38-.034.141-9.307-3.922,7.736,4.336-.044.136-8.816-4.94-6.766,10.284-.085-.1,6.716-10.209-60.367-2.849,22.03,28.062-.079.106L648.5,339.667l-17.834,52.185-.1-.061,17.608-51.524-31.72,60.916,74.789-44.736.023.067h0l.009-.073,94.488,20.311-61.126-31.616.041-.136,61.609,31.864,27.764,1.531-.005.148-27.171-1.5,27.186,8.3-.026.145-27.387-8.362,27.428,20.215-.056.129L786.265,377.02l-34.672,14.275,62.469,26.539-.034.141L751.7,391.5l62.378,62.855-.069.118-62.6-63.074L710.851,455.4l103.2,24.478-.02.146L710.916,455.571l96.17,123.669,6.909-15.771.1.074L807.148,579.4l-.049-.038h0l.019.069-28.724,13.918-.039-.139,28.511-13.813L660.7,553.58l65.659,39.629-.048.135-65.984-39.826-67.138,19.629L685.3,593.2l-.018.146-92.151-20.067,21.1,19.933-.066.12-21.277-20.1L524.1,593.348l-.025-.144,68.53-20.035L481.745,549.029,502.1,593.238l-.1.076-20.4-44.3L393.78,567.4l90.9,25.808-.023.144L393.52,567.473l-3.559,25.816-.111-.026,3.555-25.789L279.459,591.328l4.6,1.878-.033.142-4.8-1.958-1.428,1.938-.081-.1,1.334-1.813L269.8,593.35l-.018-.146,9.182-1.923-71.605-29.2L165.644,593.34l-.056-.128,41.492-31.1L71.119,584.283l12.337,8.929-.055.13L70.936,584.32l-17.443,9.026-.041-.137L70.5,584.383ZM207.62,562.028,279.2,591.22l34.179-46.435Zm105.926-17.262L279.371,591.2l113.8-23.823ZM33.431,557.006l37.513,27.15L154.7,540.815Zm121.675-16.242L71.374,584.091l135.712-22.127Zm505.329,12.618,146.5,25.872L710.754,455.57Zm-108.5-19.012,40.976,38.707,67.108-19.62Zm-69.949,14.56,110.684,24.1-40.965-38.7Zm-168.121-4.225L393.43,567.3l5.015-36.382Zm84.7-13.792-5.015,36.381,87.738-18.367Zm-243.174,9.81,51.962,21.192,45.671-34.228Zm97.9-13.067-45.66,34.22L313.19,544.666ZM5.739,536.964l27.513,19.913,81.61-32.248ZM115.4,524.571,33.826,556.8l121-16.155Zm493.1-19.408,51.823,48.174L710.6,455.6Zm-56.56,29.06,108.178,19.1-51.745-48.1Zm-83.752-14.641,13.474,29.267,69.668-14.584ZM398.907,530.84l82.615,17.99-13.473-29.264ZM253.637,527.6l59.872,17,20.4-27.718Zm80.441-10.732-20.4,27.713,84.441-13.766Zm-218.386,7.662L155.1,540.608l50.759-26.266ZM206.247,514.3l-50.741,26.257,97.411-13.006ZM84.208,511.849,6.278,536.754l108.831-12.3ZM526.236,510.1l25.49,24.078,56.317-28.939Zm-57.718,9.394L551.5,534.145l-25.445-24.036Zm-134.034-2.679,63.984,13.934,3.157-22.9Zm67.255-8.964-3.156,22.9,69.056-11.259Zm-195.119,6.41L253.268,527.5l29.1-21.807Zm76.005-8.588-29.089,21.8,80.1-10.694ZM84.509,511.816l30.892,12.6,52.593-20.782Zm84-8.23-52.569,20.772,89.926-10.165Zm290.751-3.4,8.851,19.225,57.484-9.372Zm-57.084,7.591,65.8,11.62-8.85-19.224Zm-119.108-2.159,50.972,11.1,13.537-18.391Zm64.676-7.3L334.206,516.7l67.007-8.945ZM168.9,503.546l37.34,10.6,34-17.594Zm71.714-7.027-33.989,17.587,75.541-8.539ZM137.556,494.8,84.889,511.63l83.223-8.157Zm436.677-41.485-48.007,56.634,82.035-4.874Zm-65.558,40.195,17.392,16.429,47.851-56.451Zm-49,6.588,66.186,9.831-17.314-16.355Zm-111.442-1.848,53.412,9.433,2.166-15.714Zm55.693-6.283-2.166,15.715,56.858-7.592Zm-162.851,4.507,41.526,9.043,20.129-15.086Zm61.911-6.064-20.123,15.082,64.341-7.273ZM574.341,453.25l34.037,51.773,45.194-78.608Zm79.392-26.869-45.19,78.6,102.044-49.531ZM205.655,488.908l-36.64,14.477,71.117-6.971Zm247.275-2.47,6.249,13.575L508,493.5Zm-48.479,5.455L459.042,500l-6.249-13.573ZM303.52,490.351l44.18,7.8,9.625-13.075Zm53.969-5.285-9.623,13.075,55.447-6.269Zm-92.2-1.318-24.318,12.584,61.464-6.024Zm188.15,2.607,54.921,7.038-12.524-11.831Zm97.692-23.636L510.058,492.5l63.4-38.893ZM358.072,485l45.764,6.8,1.577-11.437Zm47.456-4.642L403.951,491.8l48.256-5.455Zm-87.577-1.17-14.727,11.038,53.642-5.257Zm130.263-3,4.642,10.082,42.341-4.786Zm-42.074,4.1,46.578,5.97-4.64-10.081Zm-41.344-5.15-7.182,9.757,47.212-4.628Zm84.018.967,46.841,5.279-9.466-8.942Zm-42.066-4.593-1.2,8.685,41.852-4.1Zm37.813-3.26,3.577,7.77,37.318-3.658Zm34.263-2.95,7.4,6.988,33.451-3.278Zm175.07-39,56.834,29.063,40.52-63.939Zm-38.832-24.112-40.627,50.874,79.114-26.794Zm.122-.088L653.7,426.2l37.4-69.5Zm76.1-45.494-37.43,69.556,97.387-34.889Zm.41.074,59.719,34.53,34.618-14.252Zm-43.1-17.213,60.385,2.85-35.565-47.926Zm83.723-43.965,68.765,36.58-47.415-52ZM595.3,356.991,584.61,287.65l.055-.015.049-.038,29.4,64.939-.1.075-29.229-64.563,10.623,68.913Zm27.044-6.364-17.252-118.3.055-.015.049-.037,40.925,92.552-.1.074-40.759-92.174L622.454,350.6ZM646.2,324.69,625.66,254.018l.106-.052,20.542,70.671Zm2.36-2.519-.1-.069,16.615-41.526.05.034.03-.062,16.325,13.839-.061.125-16.137-13.681,6.433,15.354-.1.071-6.489-15.49Zm50.425-27.315-16.506-37.747.048-.036.042-.051,24.955,35.487-.083.1-24.616-35,16.256,37.176Z" transform="translate(-0.011 -202.657)" fill="none" stroke="#8ecdf4" stroke-miterlimit="10" stroke-width="0.5"/><path d="M814.032,565.556l-6.945-3.08.018-.071.008-.073,6.945,1.226-.015.147-6.365-1.124,6.391,2.833ZM495.873,464.606l-.028-.144,18.45-6.289.029.144Zm18.451-6.289-.029-.144,10.48-3.572.029.144Zm10.48-3.572-.029-.144,26.315-8.968,7.2-6.824.066.12-7.213,6.831-.034-.06.015.072Zm-15.069-9.1-.039-.139,17.126-8.236.039.14Zm48.626-6.715-.066-.12,17.125-16.217.066.12Zm-31.5-1.521-.039-.14,10.074-4.844.039.139Zm10.074-4.845-.039-.139,4.531-2.18.039.141Zm4.531-2.178-.039-.141.995-.478.038.139Zm.993-.479-.038-.139,8.608-4.14.039.141Zm-177.375-2.995-.093-.085,1.366-2.57.092.085Zm1.366-2.57-.092-.085.991-1.867.093.083Zm209.036-1.629-.066-.12L593.87,405.12l.067.12Zm-208.044-.238-.093-.083.2-.378.093.085Zm.2-.377-.093-.085.783-1.475.093.085Zm-74.707-.239-11.269-12.872h0l-.035-.039.038-.057-.038.057-1-1.14h0l-.335-.383.037-.055-.037.055-.879-1h0l-1.2-1.366.074-.113.01.011-.032.051.033-.05,1.942,2.218-.037.057.037-.057.122.141h0l1.367,1.561-.037.056.037-.056,1.4,1.6h0l9.865,11.268Zm75.489-1.236-.093-.085.267-.5.093.084Zm.267-.5-.093-.084.614-1.156.093.085Zm.614-1.155-.093-.085.319-.6.093.085Zm.319-.6-.093-.085.475-.894.093.085Zm.475-.894-.093-.085.359-.675.092.086Zm.358-.673-.092-.086,1.425-2.683.093.085Zm1.426-2.685-.093-.085.732-1.377.093.085Zm.732-1.377-.093-.085.443-.836.093.085Zm.443-.835-.093-.085.06-.113.093.085Zm.06-.114-.093-.085.453-.853.047.043-.047-.043.132-.248.092.084-.12.227-.046-.043.046.044Zm.585-1.1-.092-.084.34-.641.093.085Zm.34-.64-.093-.085.371-.7.093.085Zm.371-.7-.093-.085.373-.7.038.035-.038-.035.469-.881.093.085-.777,1.462-.038-.034.038.034Zm.841-1.584-.093-.085.205-.387.092.085Zm.2-.386-.092-.085.592-1.115.046.043-.046-.043.179-.336.093.085-.093-.085.284-.535.093.085-.463.873h0Zm1.056-1.987-.093-.085.062-.116.093.085Zm.062-.115-.093-.085.205-.387.046.043-.046-.043.252-.474.092.085-.216.407-.059-.054.059.054Zm217.355-.034-.067-.12L605.3,394.292l.065.12Zm-315.718-.193-8.412-9.608.074-.111,8.412,9.608Zm98.819-.633-.092-.085.011-.022.093.085Zm.012-.022-.093-.085.42-.791.041.036-.041-.037.24-.451.093.085-.212.4-.036-.032.036.032-.33.621h0Zm.66-1.243-.093-.085.141-.263.092.085Zm.14-.263-.092-.085,10.885-20.489.093.084Zm227.52-8.473-.065-.12,9.719-9.2.033.06-.025-.067,1.3-.857.051.132-1.294.855Zm11.01-10.054-.051-.132,14.263-9.423.051.132Zm-371.1-2.575L220.59,313.629l.1-.063,24.686,68.154Zm385.368-6.848-.051-.132,20.052-13.246.025.066-.022-.069,19.95-10.841.043.137-19.948,10.84ZM25.1,373.689l-8.629-3.679.035-.141,8.6,3.665.022-.026,29.6-36.776.078.107L25.152,373.673l-.039-.053Zm-8.629-3.679-3.31-1.411.035-.14,3.31,1.41Zm-3.31-1.411L.046,363.012l.035-.141,13.111,5.589ZM562.8,366.017l-14.6-3.573.021-.147,14.6,3.574Zm-14.6-3.573-22.145-5.419.022-.146,22.144,5.417Zm265.834-1.514-30.415-11.141.03-.143,30.416,11.14ZM670.642,350.85l-.043-.137,20.646-11.218.022.068-.014-.071,11.058-3.79.029.142-11.054,3.789Zm112.976-1.061-58.96-21.6-6.673,2.288-.029-.144,6.689-2.292.014.071.016-.071,58.974,21.6Zm-206.033-5.507-.02-.146,17.785-4.186.02.147ZM595.37,340.1l-.02-.147,27.875-6.558,22.815-25.534.073.113-22.827,25.547-.036-.057.01.074Zm106.968-4.253-.029-.142,15.646-5.364.029.144ZM46.487,325.166l-.083-.1,9.725-13.79.083.1Zm43.134-9.436-.015-.146,4.463-.769.015.146Zm4.463-.769-.015-.146,27.692-4.774.015.147Zm-37.873-3.585-.083-.1,25.147-35.658.083.1Zm589.9-3.4-.073-.113,2.44-2.731.074.113-2.258,2.526h0Zm2.441-2.731-.074-.113,23.156-25.915.073.113Zm23.155-25.915-.073-.113,1.734-1.942.037.056v-.074l32.461.682,1.578-2.378.086.1-1.517,2.284,26.17.55,0,.148L673.428,277.4Zm35.824-3.671-.086-.1,10.311-15.533.085.1Zm-211.289-4.988-.011-.072-.017.071-19.691-8.117.033-.141,19.678,8.111,6.93-1.89.023.145Zm6.945-1.893-.023-.145,7.691-2.1.023.145Zm7.692-2.1-.023-.145,10.546-2.877.023.146Zm154.226-2.951-.57-.385L625.692,237.1l.052-.132,39.414,26.619ZM557.967,214.245l-.064-.122,8.955-8.077.064.121Zm8.955-8.077-.064-.121L589.413,185.7l.064.122Z" transform="translate(-0.017 -185.704)" fill="none" stroke="#8ecdf4" stroke-miterlimit="10" stroke-width="0.5"/></g></g></svg>